<mxfile host="Electron" modified="2024-10-07T12:40:41.068Z" agent="Mozilla/5.0 (X11; Linux x86_64) AppleWebKit/537.36 (KHTML, like Gecko) draw.io/21.6.8 Chrome/114.0.5735.289 Electron/25.5.0 Safari/537.36" etag="JONoHhvyiThQtbWUeQwe" version="21.6.8" type="device">
  <diagram id="KJtYdw0eZzOHVuxyC3Ms" name="grafana">
    <mxGraphModel dx="574" dy="335" grid="0" gridSize="10" guides="1" tooltips="1" connect="1" arrows="1" fold="1" page="1" pageScale="1" pageWidth="827" pageHeight="1169" background="#4D5766" math="0" shadow="0">
      <root>
        <mxCell id="hoIyyHPse7EPIckKOxvK-0" />
        <mxCell id="hoIyyHPse7EPIckKOxvK-1" parent="hoIyyHPse7EPIckKOxvK-0" />
        <mxCell id="LEKcDndMfLhwWaFglhCF-7" style="orthogonalLoop=1;jettySize=auto;html=1;startSize=2;endArrow=none;endFill=0;endSize=2;fontFamily=Manrope;fontSize=8;strokeColor=#98A2AE;fontSource=https%3A%2F%2Ffonts.googleapis.com%2Fcss%3Ffamily%3DManrope;startFill=0;startArrow=none;edgeStyle=elbowEdgeStyle;elbow=vertical;entryX=0.5;entryY=1;entryDx=0;entryDy=0;rounded=1;exitX=0.5;exitY=0;exitDx=0;exitDy=0;jumpStyle=gap;jumpSize=6;" edge="1" parent="hoIyyHPse7EPIckKOxvK-1" source="spine1-eth1/3" target="MzNvUIA4c6WraNlcx4m_-10">
          <mxGeometry relative="1" as="geometry">
            <mxPoint x="462" y="266" as="sourcePoint" />
            <mxPoint x="412" y="212" as="targetPoint" />
            <Array as="points">
              <mxPoint x="390" y="221" />
            </Array>
          </mxGeometry>
        </mxCell>
        <mxCell id="LEKcDndMfLhwWaFglhCF-8" value="spine1_1/1-out" style="edgeLabel;html=1;align=center;verticalAlign=middle;resizable=0;points=[];fontSize=8;fontFamily=Fira Code;noLabel=1;fontColor=none;" vertex="1" connectable="0" parent="LEKcDndMfLhwWaFglhCF-7">
          <mxGeometry x="-0.1735" relative="1" as="geometry">
            <mxPoint as="offset" />
          </mxGeometry>
        </mxCell>
        <mxCell id="LEKcDndMfLhwWaFglhCF-9" value="asd" style="edgeLabel;html=1;align=center;verticalAlign=middle;resizable=0;points=[];fontSize=8;fontFamily=Fira Code;noLabel=1;fontColor=none;" vertex="1" connectable="0" parent="LEKcDndMfLhwWaFglhCF-7">
          <mxGeometry x="-0.315" y="2" relative="1" as="geometry">
            <mxPoint x="-6.08" y="-9.26" as="offset" />
          </mxGeometry>
        </mxCell>
        <mxCell id="MzNvUIA4c6WraNlcx4m_-0" style="rounded=0;orthogonalLoop=1;jettySize=auto;html=1;exitX=0.5;exitY=0;exitDx=0;exitDy=0;startSize=2;endArrow=none;endFill=0;endSize=2;fontFamily=Manrope;fontSize=8;strokeColor=#98A2AE;fontSource=https%3A%2F%2Ffonts.googleapis.com%2Fcss%3Ffamily%3DManrope;startFill=1;startArrow=classicThin;edgeStyle=elbowEdgeStyle;elbow=vertical;" parent="hoIyyHPse7EPIckKOxvK-1" source="MzNvUIA4c6WraNlcx4m_-113" target="spine2-eth1/1" edge="1">
          <mxGeometry relative="1" as="geometry">
            <mxPoint x="366" y="273" as="sourcePoint" />
            <mxPoint x="446" y="249" as="targetPoint" />
          </mxGeometry>
        </mxCell>
        <mxCell id="agJGtUolQpaysEPCJuB_-9" value="rate" style="edgeLabel;html=1;align=center;verticalAlign=middle;resizable=0;points=[];fontSize=6;fontFamily=Fira Code;fontColor=#FFFFFF;textOpacity=60;labelBackgroundColor=#4D5766;rotation=-90;" parent="MzNvUIA4c6WraNlcx4m_-0" vertex="1" connectable="0">
          <mxGeometry x="0.5603" y="1" relative="1" as="geometry">
            <mxPoint x="1" y="7" as="offset" />
          </mxGeometry>
        </mxCell>
        <mxCell id="MzNvUIA4c6WraNlcx4m_-1" style="rounded=0;orthogonalLoop=1;jettySize=auto;html=1;startSize=2;endArrow=none;endFill=0;endSize=2;fontFamily=Manrope;fontSize=8;strokeColor=#98A2AE;fontSource=https%3A%2F%2Ffonts.googleapis.com%2Fcss%3Ffamily%3DManrope;startFill=1;startArrow=classicThin;edgeStyle=elbowEdgeStyle;elbow=vertical;" parent="hoIyyHPse7EPIckKOxvK-1" source="MzNvUIA4c6WraNlcx4m_-119" target="spine1-eth1/3" edge="1">
          <mxGeometry relative="1" as="geometry">
            <mxPoint x="428" y="273" as="sourcePoint" />
            <mxPoint x="401" y="259" as="targetPoint" />
          </mxGeometry>
        </mxCell>
        <mxCell id="agJGtUolQpaysEPCJuB_-8" value="rate" style="edgeLabel;html=1;align=center;verticalAlign=middle;resizable=0;points=[];fontSize=6;fontFamily=Fira Code;fontColor=#FFFFFF;textOpacity=60;labelBackgroundColor=#4D5766;rotation=-90;" parent="MzNvUIA4c6WraNlcx4m_-1" vertex="1" connectable="0">
          <mxGeometry x="0.5724" relative="1" as="geometry">
            <mxPoint y="7" as="offset" />
          </mxGeometry>
        </mxCell>
        <mxCell id="MzNvUIA4c6WraNlcx4m_-2" style="rounded=0;orthogonalLoop=1;jettySize=auto;html=1;startSize=2;endArrow=none;endFill=0;endSize=2;fontFamily=Manrope;fontSize=8;strokeColor=#98A2AE;fontSource=https%3A%2F%2Ffonts.googleapis.com%2Fcss%3Ffamily%3DManrope;startFill=1;startArrow=classicThin;edgeStyle=elbowEdgeStyle;elbow=vertical;" parent="hoIyyHPse7EPIckKOxvK-1" source="MzNvUIA4c6WraNlcx4m_-121" target="spine2-eth1/3" edge="1">
          <mxGeometry relative="1" as="geometry">
            <mxPoint x="428" y="273" as="sourcePoint" />
            <mxPoint x="406" y="249" as="targetPoint" />
          </mxGeometry>
        </mxCell>
        <mxCell id="agJGtUolQpaysEPCJuB_-11" value="rate" style="edgeLabel;html=1;align=center;verticalAlign=middle;resizable=0;points=[];fontSize=6;fontFamily=Fira Code;fontColor=#FFFFFF;textOpacity=60;labelBackgroundColor=#4D5766;rotation=-90;" parent="MzNvUIA4c6WraNlcx4m_-2" vertex="1" connectable="0">
          <mxGeometry x="0.3038" relative="1" as="geometry">
            <mxPoint y="2" as="offset" />
          </mxGeometry>
        </mxCell>
        <mxCell id="MzNvUIA4c6WraNlcx4m_-3" value="" style="group;fontFamily=Manrope;fontSource=https%3A%2F%2Ffonts.googleapis.com%2Fcss%3Ffamily%3DManrope;" parent="hoIyyHPse7EPIckKOxvK-1" vertex="1" connectable="0">
          <mxGeometry x="489" y="172" width="30" height="30" as="geometry" />
        </mxCell>
        <mxCell id="MzNvUIA4c6WraNlcx4m_-4" value="" style="whiteSpace=wrap;html=1;aspect=fixed;fillColor=#001135;strokeColor=none;connectable=1;allowArrows=1;fontFamily=Manrope;fontSource=https%3A%2F%2Ffonts.googleapis.com%2Fcss%3Ffamily%3DManrope;" parent="MzNvUIA4c6WraNlcx4m_-3" vertex="1">
          <mxGeometry width="30" height="30" as="geometry" />
        </mxCell>
        <mxCell id="MzNvUIA4c6WraNlcx4m_-5" value="" style="endArrow=open;html=1;edgeStyle=orthogonalEdgeStyle;rounded=0;endFill=0;startSize=6;endSize=2;strokeColor=#FFFFFF;fontFamily=Manrope;fontSource=https%3A%2F%2Ffonts.googleapis.com%2Fcss%3Ffamily%3DManrope;" parent="MzNvUIA4c6WraNlcx4m_-3" edge="1">
          <mxGeometry width="50" height="50" relative="1" as="geometry">
            <mxPoint x="3" y="12" as="sourcePoint" />
            <mxPoint x="11" y="3" as="targetPoint" />
            <Array as="points">
              <mxPoint x="11" y="12" />
            </Array>
          </mxGeometry>
        </mxCell>
        <mxCell id="MzNvUIA4c6WraNlcx4m_-6" value="" style="endArrow=open;html=1;edgeStyle=orthogonalEdgeStyle;rounded=0;endFill=0;startSize=6;endSize=2;strokeColor=#FFFFFF;fontFamily=Manrope;fontSource=https%3A%2F%2Ffonts.googleapis.com%2Fcss%3Ffamily%3DManrope;" parent="MzNvUIA4c6WraNlcx4m_-3" edge="1">
          <mxGeometry width="50" height="50" relative="1" as="geometry">
            <mxPoint x="11" y="27" as="sourcePoint" />
            <mxPoint x="3" y="19" as="targetPoint" />
            <Array as="points">
              <mxPoint x="11" y="19" />
            </Array>
          </mxGeometry>
        </mxCell>
        <mxCell id="MzNvUIA4c6WraNlcx4m_-7" value="" style="endArrow=open;html=1;edgeStyle=orthogonalEdgeStyle;rounded=0;endFill=0;startSize=6;endSize=2;strokeColor=#FFFFFF;fontFamily=Manrope;fontSource=https%3A%2F%2Ffonts.googleapis.com%2Fcss%3Ffamily%3DManrope;" parent="MzNvUIA4c6WraNlcx4m_-3" edge="1">
          <mxGeometry width="50" height="50" relative="1" as="geometry">
            <mxPoint x="18" y="3" as="sourcePoint" />
            <mxPoint x="27" y="12" as="targetPoint" />
            <Array as="points">
              <mxPoint x="18" y="12" />
            </Array>
          </mxGeometry>
        </mxCell>
        <mxCell id="MzNvUIA4c6WraNlcx4m_-8" value="" style="endArrow=open;html=1;edgeStyle=orthogonalEdgeStyle;rounded=0;endFill=0;startSize=6;endSize=2;strokeColor=#FFFFFF;fontFamily=Manrope;fontSource=https%3A%2F%2Ffonts.googleapis.com%2Fcss%3Ffamily%3DManrope;" parent="MzNvUIA4c6WraNlcx4m_-3" edge="1">
          <mxGeometry width="50" height="50" relative="1" as="geometry">
            <mxPoint x="27" y="19" as="sourcePoint" />
            <mxPoint x="18" y="27" as="targetPoint" />
            <Array as="points">
              <mxPoint x="18" y="19" />
            </Array>
          </mxGeometry>
        </mxCell>
        <mxCell id="MzNvUIA4c6WraNlcx4m_-9" value="" style="group;fontFamily=Manrope;fontSource=https%3A%2F%2Ffonts.googleapis.com%2Fcss%3Ffamily%3DManrope;" parent="hoIyyHPse7EPIckKOxvK-1" vertex="1" connectable="0">
          <mxGeometry x="387" y="172" width="30" height="30" as="geometry" />
        </mxCell>
        <mxCell id="MzNvUIA4c6WraNlcx4m_-10" value="" style="whiteSpace=wrap;html=1;aspect=fixed;fillColor=#001135;strokeColor=none;connectable=1;allowArrows=1;fontFamily=Manrope;fontSource=https%3A%2F%2Ffonts.googleapis.com%2Fcss%3Ffamily%3DManrope;" parent="MzNvUIA4c6WraNlcx4m_-9" vertex="1">
          <mxGeometry width="30" height="30" as="geometry" />
        </mxCell>
        <mxCell id="MzNvUIA4c6WraNlcx4m_-11" value="" style="endArrow=open;html=1;edgeStyle=orthogonalEdgeStyle;rounded=0;endFill=0;startSize=6;endSize=2;strokeColor=#FFFFFF;fontFamily=Manrope;fontSource=https%3A%2F%2Ffonts.googleapis.com%2Fcss%3Ffamily%3DManrope;" parent="MzNvUIA4c6WraNlcx4m_-9" edge="1">
          <mxGeometry width="50" height="50" relative="1" as="geometry">
            <mxPoint x="3" y="12" as="sourcePoint" />
            <mxPoint x="11" y="3" as="targetPoint" />
            <Array as="points">
              <mxPoint x="11" y="12" />
            </Array>
          </mxGeometry>
        </mxCell>
        <mxCell id="MzNvUIA4c6WraNlcx4m_-12" value="" style="endArrow=open;html=1;edgeStyle=orthogonalEdgeStyle;rounded=0;endFill=0;startSize=6;endSize=2;strokeColor=#FFFFFF;fontFamily=Manrope;fontSource=https%3A%2F%2Ffonts.googleapis.com%2Fcss%3Ffamily%3DManrope;" parent="MzNvUIA4c6WraNlcx4m_-9" edge="1">
          <mxGeometry width="50" height="50" relative="1" as="geometry">
            <mxPoint x="11" y="27" as="sourcePoint" />
            <mxPoint x="3" y="19" as="targetPoint" />
            <Array as="points">
              <mxPoint x="11" y="19" />
            </Array>
          </mxGeometry>
        </mxCell>
        <mxCell id="MzNvUIA4c6WraNlcx4m_-13" value="" style="endArrow=open;html=1;edgeStyle=orthogonalEdgeStyle;rounded=0;endFill=0;startSize=6;endSize=2;strokeColor=#FFFFFF;fontFamily=Manrope;fontSource=https%3A%2F%2Ffonts.googleapis.com%2Fcss%3Ffamily%3DManrope;" parent="MzNvUIA4c6WraNlcx4m_-9" edge="1">
          <mxGeometry width="50" height="50" relative="1" as="geometry">
            <mxPoint x="18" y="3" as="sourcePoint" />
            <mxPoint x="27" y="12" as="targetPoint" />
            <Array as="points">
              <mxPoint x="18" y="12" />
            </Array>
          </mxGeometry>
        </mxCell>
        <mxCell id="MzNvUIA4c6WraNlcx4m_-14" value="" style="endArrow=open;html=1;edgeStyle=orthogonalEdgeStyle;rounded=0;endFill=0;startSize=6;endSize=2;strokeColor=#FFFFFF;fontFamily=Manrope;fontSource=https%3A%2F%2Ffonts.googleapis.com%2Fcss%3Ffamily%3DManrope;" parent="MzNvUIA4c6WraNlcx4m_-9" edge="1">
          <mxGeometry width="50" height="50" relative="1" as="geometry">
            <mxPoint x="27" y="19" as="sourcePoint" />
            <mxPoint x="18" y="27" as="targetPoint" />
            <Array as="points">
              <mxPoint x="18" y="19" />
            </Array>
          </mxGeometry>
        </mxCell>
        <mxCell id="MzNvUIA4c6WraNlcx4m_-15" style="rounded=0;orthogonalLoop=1;jettySize=auto;html=1;startSize=2;endArrow=none;endFill=0;endSize=2;fontFamily=Manrope;fontSize=8;strokeColor=#98A2AE;fontSource=https%3A%2F%2Ffonts.googleapis.com%2Fcss%3Ffamily%3DManrope;startFill=1;startArrow=classicThin;edgeStyle=elbowEdgeStyle;elbow=vertical;" parent="hoIyyHPse7EPIckKOxvK-1" source="MzNvUIA4c6WraNlcx4m_-115" target="spine1-eth1/2" edge="1">
          <mxGeometry relative="1" as="geometry">
            <mxPoint x="348" y="275" as="sourcePoint" />
            <mxPoint x="411" y="269" as="targetPoint" />
          </mxGeometry>
        </mxCell>
        <mxCell id="agJGtUolQpaysEPCJuB_-7" value="rate" style="edgeLabel;html=1;align=center;verticalAlign=middle;resizable=0;points=[];fontSize=6;fontFamily=Fira Code;fontColor=#FFFFFF;textOpacity=60;labelBackgroundColor=#4D5766;rotation=-90;" parent="MzNvUIA4c6WraNlcx4m_-15" vertex="1" connectable="0">
          <mxGeometry x="0.3089" relative="1" as="geometry">
            <mxPoint y="2" as="offset" />
          </mxGeometry>
        </mxCell>
        <mxCell id="MzNvUIA4c6WraNlcx4m_-16" style="rounded=0;orthogonalLoop=1;jettySize=auto;html=1;startSize=2;endArrow=none;endFill=0;endSize=2;fontFamily=Manrope;fontSize=8;strokeColor=#98A2AE;fontSource=https%3A%2F%2Ffonts.googleapis.com%2Fcss%3Ffamily%3DManrope;startArrow=classicThin;startFill=1;" parent="hoIyyHPse7EPIckKOxvK-1" source="MzNvUIA4c6WraNlcx4m_-117" target="leaf2-eth1/50" edge="1">
          <mxGeometry relative="1" as="geometry">
            <mxPoint x="398" y="275" as="sourcePoint" />
            <mxPoint x="370" y="251" as="targetPoint" />
          </mxGeometry>
        </mxCell>
        <mxCell id="agJGtUolQpaysEPCJuB_-15" value="rate" style="edgeLabel;html=1;align=center;verticalAlign=middle;resizable=0;points=[];fontSize=6;fontFamily=Fira Code;fontColor=#FFFFFF;textOpacity=60;labelBackgroundColor=#4D5766;rotation=-90;" parent="MzNvUIA4c6WraNlcx4m_-16" vertex="1" connectable="0">
          <mxGeometry x="-0.1688" relative="1" as="geometry">
            <mxPoint x="-1" y="3" as="offset" />
          </mxGeometry>
        </mxCell>
        <mxCell id="MzNvUIA4c6WraNlcx4m_-17" value="&lt;font style=&quot;font-size: 10px&quot;&gt;leaf-1&lt;/font&gt;" style="text;html=1;align=center;verticalAlign=middle;resizable=0;points=[];autosize=1;fontSize=10;fontFamily=Manrope;fontStyle=0;fontColor=#FFFFFF;" parent="hoIyyHPse7EPIckKOxvK-1" vertex="1">
          <mxGeometry x="275" y="356" width="36" height="18" as="geometry" />
        </mxCell>
        <mxCell id="MzNvUIA4c6WraNlcx4m_-18" value="4" style="group;fontFamily=Manrope;fontSource=https%3A%2F%2Ffonts.googleapis.com%2Fcss%3Ffamily%3DManrope;" parent="hoIyyHPse7EPIckKOxvK-1" vertex="1" connectable="0">
          <mxGeometry x="588" y="350" width="30" height="30" as="geometry" />
        </mxCell>
        <mxCell id="MzNvUIA4c6WraNlcx4m_-19" value="" style="whiteSpace=wrap;html=1;aspect=fixed;fillColor=#001135;strokeColor=none;connectable=1;allowArrows=1;fontFamily=Manrope;fontSource=https%3A%2F%2Ffonts.googleapis.com%2Fcss%3Ffamily%3DManrope;" parent="MzNvUIA4c6WraNlcx4m_-18" vertex="1">
          <mxGeometry width="30" height="30" as="geometry" />
        </mxCell>
        <mxCell id="MzNvUIA4c6WraNlcx4m_-20" value="" style="endArrow=open;html=1;edgeStyle=orthogonalEdgeStyle;rounded=0;endFill=0;startSize=6;endSize=2;strokeColor=#FFFFFF;fontFamily=Manrope;fontSource=https%3A%2F%2Ffonts.googleapis.com%2Fcss%3Ffamily%3DManrope;" parent="MzNvUIA4c6WraNlcx4m_-18" edge="1">
          <mxGeometry width="50" height="50" relative="1" as="geometry">
            <mxPoint x="3" y="12" as="sourcePoint" />
            <mxPoint x="11" y="3" as="targetPoint" />
            <Array as="points">
              <mxPoint x="11" y="12" />
            </Array>
          </mxGeometry>
        </mxCell>
        <mxCell id="MzNvUIA4c6WraNlcx4m_-21" value="" style="endArrow=open;html=1;edgeStyle=orthogonalEdgeStyle;rounded=0;endFill=0;startSize=6;endSize=2;strokeColor=#FFFFFF;fontFamily=Manrope;fontSource=https%3A%2F%2Ffonts.googleapis.com%2Fcss%3Ffamily%3DManrope;" parent="MzNvUIA4c6WraNlcx4m_-18" edge="1">
          <mxGeometry width="50" height="50" relative="1" as="geometry">
            <mxPoint x="11" y="27" as="sourcePoint" />
            <mxPoint x="3" y="19" as="targetPoint" />
            <Array as="points">
              <mxPoint x="11" y="19" />
            </Array>
          </mxGeometry>
        </mxCell>
        <mxCell id="MzNvUIA4c6WraNlcx4m_-22" value="" style="endArrow=open;html=1;edgeStyle=orthogonalEdgeStyle;rounded=0;endFill=0;startSize=6;endSize=2;strokeColor=#FFFFFF;fontFamily=Manrope;fontSource=https%3A%2F%2Ffonts.googleapis.com%2Fcss%3Ffamily%3DManrope;" parent="MzNvUIA4c6WraNlcx4m_-18" edge="1">
          <mxGeometry width="50" height="50" relative="1" as="geometry">
            <mxPoint x="18" y="3" as="sourcePoint" />
            <mxPoint x="27" y="12" as="targetPoint" />
            <Array as="points">
              <mxPoint x="18" y="12" />
            </Array>
          </mxGeometry>
        </mxCell>
        <mxCell id="MzNvUIA4c6WraNlcx4m_-23" value="" style="endArrow=open;html=1;edgeStyle=orthogonalEdgeStyle;rounded=0;endFill=0;startSize=6;endSize=2;strokeColor=#FFFFFF;fontFamily=Manrope;fontSource=https%3A%2F%2Ffonts.googleapis.com%2Fcss%3Ffamily%3DManrope;" parent="MzNvUIA4c6WraNlcx4m_-18" edge="1">
          <mxGeometry width="50" height="50" relative="1" as="geometry">
            <mxPoint x="27" y="19" as="sourcePoint" />
            <mxPoint x="18" y="27" as="targetPoint" />
            <Array as="points">
              <mxPoint x="18" y="19" />
            </Array>
          </mxGeometry>
        </mxCell>
        <mxCell id="MzNvUIA4c6WraNlcx4m_-24" value="" style="group;fontFamily=Manrope;fontSource=https%3A%2F%2Ffonts.googleapis.com%2Fcss%3Ffamily%3DManrope;" parent="hoIyyHPse7EPIckKOxvK-1" vertex="1" connectable="0">
          <mxGeometry x="444" y="350" width="30" height="30" as="geometry" />
        </mxCell>
        <mxCell id="MzNvUIA4c6WraNlcx4m_-25" value="" style="whiteSpace=wrap;html=1;aspect=fixed;fillColor=#001135;strokeColor=none;connectable=1;allowArrows=1;fontFamily=Manrope;fontSource=https%3A%2F%2Ffonts.googleapis.com%2Fcss%3Ffamily%3DManrope;" parent="MzNvUIA4c6WraNlcx4m_-24" vertex="1">
          <mxGeometry width="30" height="30" as="geometry" />
        </mxCell>
        <mxCell id="MzNvUIA4c6WraNlcx4m_-26" value="" style="endArrow=open;html=1;edgeStyle=orthogonalEdgeStyle;rounded=0;endFill=0;startSize=6;endSize=2;strokeColor=#FFFFFF;fontFamily=Manrope;fontSource=https%3A%2F%2Ffonts.googleapis.com%2Fcss%3Ffamily%3DManrope;" parent="MzNvUIA4c6WraNlcx4m_-24" edge="1">
          <mxGeometry width="50" height="50" relative="1" as="geometry">
            <mxPoint x="3" y="12" as="sourcePoint" />
            <mxPoint x="11" y="3" as="targetPoint" />
            <Array as="points">
              <mxPoint x="11" y="12" />
            </Array>
          </mxGeometry>
        </mxCell>
        <mxCell id="MzNvUIA4c6WraNlcx4m_-27" value="" style="endArrow=open;html=1;edgeStyle=orthogonalEdgeStyle;rounded=0;endFill=0;startSize=6;endSize=2;strokeColor=#FFFFFF;fontFamily=Manrope;fontSource=https%3A%2F%2Ffonts.googleapis.com%2Fcss%3Ffamily%3DManrope;" parent="MzNvUIA4c6WraNlcx4m_-24" edge="1">
          <mxGeometry width="50" height="50" relative="1" as="geometry">
            <mxPoint x="11" y="27" as="sourcePoint" />
            <mxPoint x="3" y="19" as="targetPoint" />
            <Array as="points">
              <mxPoint x="11" y="19" />
            </Array>
          </mxGeometry>
        </mxCell>
        <mxCell id="MzNvUIA4c6WraNlcx4m_-28" value="" style="endArrow=open;html=1;edgeStyle=orthogonalEdgeStyle;rounded=0;endFill=0;startSize=6;endSize=2;strokeColor=#FFFFFF;fontFamily=Manrope;fontSource=https%3A%2F%2Ffonts.googleapis.com%2Fcss%3Ffamily%3DManrope;" parent="MzNvUIA4c6WraNlcx4m_-24" edge="1">
          <mxGeometry width="50" height="50" relative="1" as="geometry">
            <mxPoint x="18" y="3" as="sourcePoint" />
            <mxPoint x="27" y="12" as="targetPoint" />
            <Array as="points">
              <mxPoint x="18" y="12" />
            </Array>
          </mxGeometry>
        </mxCell>
        <mxCell id="MzNvUIA4c6WraNlcx4m_-29" value="" style="endArrow=open;html=1;edgeStyle=orthogonalEdgeStyle;rounded=0;endFill=0;startSize=6;endSize=2;strokeColor=#FFFFFF;fontFamily=Manrope;fontSource=https%3A%2F%2Ffonts.googleapis.com%2Fcss%3Ffamily%3DManrope;" parent="MzNvUIA4c6WraNlcx4m_-24" edge="1">
          <mxGeometry width="50" height="50" relative="1" as="geometry">
            <mxPoint x="27" y="19" as="sourcePoint" />
            <mxPoint x="18" y="27" as="targetPoint" />
            <Array as="points">
              <mxPoint x="18" y="19" />
            </Array>
          </mxGeometry>
        </mxCell>
        <mxCell id="MzNvUIA4c6WraNlcx4m_-30" value="" style="group" parent="hoIyyHPse7EPIckKOxvK-1" vertex="1" connectable="0">
          <mxGeometry x="311" y="350" width="30" height="30" as="geometry" />
        </mxCell>
        <mxCell id="MzNvUIA4c6WraNlcx4m_-31" value="" style="whiteSpace=wrap;html=1;aspect=fixed;fillColor=#001135;strokeColor=none;connectable=1;allowArrows=1;fontFamily=Manrope;fontSource=https%3A%2F%2Ffonts.googleapis.com%2Fcss%3Ffamily%3DManrope;" parent="MzNvUIA4c6WraNlcx4m_-30" vertex="1">
          <mxGeometry width="30" height="30" as="geometry" />
        </mxCell>
        <mxCell id="MzNvUIA4c6WraNlcx4m_-32" value="" style="endArrow=open;html=1;edgeStyle=orthogonalEdgeStyle;rounded=0;endFill=0;startSize=6;endSize=2;strokeColor=#FFFFFF;fontFamily=Manrope;fontSource=https%3A%2F%2Ffonts.googleapis.com%2Fcss%3Ffamily%3DManrope;" parent="MzNvUIA4c6WraNlcx4m_-30" edge="1">
          <mxGeometry width="50" height="50" as="geometry">
            <mxPoint x="3" y="12" as="sourcePoint" />
            <mxPoint x="11" y="3" as="targetPoint" />
            <Array as="points">
              <mxPoint x="11" y="12" />
            </Array>
          </mxGeometry>
        </mxCell>
        <mxCell id="MzNvUIA4c6WraNlcx4m_-33" value="" style="endArrow=open;html=1;edgeStyle=orthogonalEdgeStyle;rounded=0;endFill=0;startSize=6;endSize=2;strokeColor=#FFFFFF;fontFamily=Manrope;fontSource=https%3A%2F%2Ffonts.googleapis.com%2Fcss%3Ffamily%3DManrope;" parent="MzNvUIA4c6WraNlcx4m_-30" edge="1">
          <mxGeometry width="50" height="50" as="geometry">
            <mxPoint x="11" y="27" as="sourcePoint" />
            <mxPoint x="3" y="19" as="targetPoint" />
            <Array as="points">
              <mxPoint x="11" y="19" />
            </Array>
          </mxGeometry>
        </mxCell>
        <mxCell id="MzNvUIA4c6WraNlcx4m_-34" value="" style="endArrow=open;html=1;edgeStyle=orthogonalEdgeStyle;rounded=0;endFill=0;startSize=6;endSize=2;strokeColor=#FFFFFF;fontFamily=Manrope;fontSource=https%3A%2F%2Ffonts.googleapis.com%2Fcss%3Ffamily%3DManrope;" parent="MzNvUIA4c6WraNlcx4m_-30" edge="1">
          <mxGeometry width="50" height="50" as="geometry">
            <mxPoint x="18" y="3" as="sourcePoint" />
            <mxPoint x="27" y="12" as="targetPoint" />
            <Array as="points">
              <mxPoint x="18" y="12" />
            </Array>
          </mxGeometry>
        </mxCell>
        <mxCell id="MzNvUIA4c6WraNlcx4m_-35" value="" style="endArrow=open;html=1;edgeStyle=orthogonalEdgeStyle;rounded=0;endFill=0;startSize=6;endSize=2;strokeColor=#FFFFFF;fontFamily=Manrope;fontSource=https%3A%2F%2Ffonts.googleapis.com%2Fcss%3Ffamily%3DManrope;" parent="MzNvUIA4c6WraNlcx4m_-30" edge="1">
          <mxGeometry width="50" height="50" as="geometry">
            <mxPoint x="27" y="19" as="sourcePoint" />
            <mxPoint x="18" y="27" as="targetPoint" />
            <Array as="points">
              <mxPoint x="18" y="19" />
            </Array>
          </mxGeometry>
        </mxCell>
        <mxCell id="MzNvUIA4c6WraNlcx4m_-36" value="&lt;font style=&quot;font-size: 10px&quot;&gt;leaf-2&lt;/font&gt;" style="text;html=1;align=center;verticalAlign=middle;resizable=0;points=[];autosize=1;fontSize=10;fontFamily=Manrope;fontStyle=0;fontColor=#FFFFFF;" parent="hoIyyHPse7EPIckKOxvK-1" vertex="1">
          <mxGeometry x="405.4" y="356" width="38" height="18" as="geometry" />
        </mxCell>
        <mxCell id="MzNvUIA4c6WraNlcx4m_-37" value="&lt;font style=&quot;font-size: 10px&quot;&gt;leaf-3&lt;/font&gt;" style="text;html=1;align=center;verticalAlign=middle;resizable=0;points=[];autosize=1;fontSize=10;fontFamily=Manrope;fontStyle=0;fontColor=#FFFFFF;" parent="hoIyyHPse7EPIckKOxvK-1" vertex="1">
          <mxGeometry x="548" y="356" width="38" height="18" as="geometry" />
        </mxCell>
        <mxCell id="MzNvUIA4c6WraNlcx4m_-38" value="&lt;font style=&quot;font-size: 10px&quot;&gt;spine-1&lt;/font&gt;" style="text;html=1;align=center;verticalAlign=middle;resizable=0;points=[];autosize=1;fontSize=10;fontFamily=Manrope;fontStyle=0;fontColor=#FFFFFF;connectable=0;" parent="hoIyyHPse7EPIckKOxvK-1" vertex="1">
          <mxGeometry x="381" y="155" width="44" height="18" as="geometry" />
        </mxCell>
        <object label="1" id="spine1-eth1/1">
          <mxCell style="ellipse;whiteSpace=wrap;html=1;aspect=fixed;fontColor=#FFFFFF;fontSize=6;strokeColor=#98A2AE;fontFamily=Manrope;fontSource=https%3A%2F%2Ffonts.googleapis.com%2Fcss%3Ffamily%3DManrope;fillColor=#BEC8D2;" parent="hoIyyHPse7EPIckKOxvK-1" vertex="1">
            <mxGeometry x="317" y="256" width="8" height="8" as="geometry" />
          </mxCell>
        </object>
        <object label="50" id="leaf1-eth1/50">
          <mxCell style="ellipse;whiteSpace=wrap;html=1;aspect=fixed;fontColor=#FFFFFF;fontSize=6;strokeColor=#98A2AE;fontFamily=Manrope;fontSource=https%3A%2F%2Ffonts.googleapis.com%2Fcss%3Ffamily%3DManrope;fillColor=#BEC8D2;" parent="hoIyyHPse7EPIckKOxvK-1" vertex="1">
            <mxGeometry x="329" y="342" width="8" height="8" as="geometry" />
          </mxCell>
        </object>
        <object label="49" id="leaf1-eth1/49">
          <mxCell style="ellipse;whiteSpace=wrap;html=1;aspect=fixed;fontSize=6;strokeColor=#98A2AE;fontFamily=Manrope;fontSource=https%3A%2F%2Ffonts.googleapis.com%2Fcss%3Ffamily%3DManrope;fillColor=#BEC8D2;fontColor=#FFFFFF;" parent="hoIyyHPse7EPIckKOxvK-1" vertex="1">
            <mxGeometry x="317" y="342" width="8" height="8" as="geometry" />
          </mxCell>
        </object>
        <mxCell id="MzNvUIA4c6WraNlcx4m_-42" style="rounded=0;orthogonalLoop=1;jettySize=auto;html=1;startSize=2;endArrow=none;endFill=0;endSize=2;fontFamily=Manrope;fontSize=8;strokeColor=#98A2AE;fontSource=https%3A%2F%2Ffonts.googleapis.com%2Fcss%3Ffamily%3DManrope;startFill=1;startArrow=classicThin;edgeStyle=elbowEdgeStyle;elbow=vertical;" parent="hoIyyHPse7EPIckKOxvK-1" source="MzNvUIA4c6WraNlcx4m_-111" target="spine1-eth1/1" edge="1">
          <mxGeometry relative="1" as="geometry">
            <mxPoint x="589" y="352" as="sourcePoint" />
            <mxPoint x="443" y="261" as="targetPoint" />
          </mxGeometry>
        </mxCell>
        <mxCell id="agJGtUolQpaysEPCJuB_-0" value="spine1_1/1-out" style="edgeLabel;html=1;align=center;verticalAlign=middle;resizable=0;points=[];fontSize=8;fontFamily=Fira Code;noLabel=1;fontColor=none;" parent="MzNvUIA4c6WraNlcx4m_-42" vertex="1" connectable="0">
          <mxGeometry x="-0.1735" relative="1" as="geometry">
            <mxPoint as="offset" />
          </mxGeometry>
        </mxCell>
        <mxCell id="agJGtUolQpaysEPCJuB_-3" value="asd" style="edgeLabel;html=1;align=center;verticalAlign=middle;resizable=0;points=[];fontSize=8;fontFamily=Fira Code;noLabel=1;fontColor=none;" parent="MzNvUIA4c6WraNlcx4m_-42" vertex="1" connectable="0">
          <mxGeometry x="-0.315" y="2" relative="1" as="geometry">
            <mxPoint x="-6.08" y="-9.26" as="offset" />
          </mxGeometry>
        </mxCell>
        <mxCell id="agJGtUolQpaysEPCJuB_-5" value="rate" style="edgeLabel;html=1;align=center;verticalAlign=middle;resizable=0;points=[];fontSize=6;fontFamily=Fira Code;labelBackgroundColor=#4D5766;fontColor=#FFFFFF;textOpacity=60;rotation=-90;" parent="MzNvUIA4c6WraNlcx4m_-42" vertex="1" connectable="0">
          <mxGeometry x="-0.2337" y="-1" relative="1" as="geometry">
            <mxPoint x="-1" y="-8" as="offset" />
          </mxGeometry>
        </mxCell>
        <object label="2" id="spine1-eth1/2">
          <mxCell style="ellipse;whiteSpace=wrap;html=1;aspect=fixed;fontColor=#FFFFFF;fontSize=6;strokeColor=#98A2AE;fontFamily=Manrope;fontSource=https%3A%2F%2Ffonts.googleapis.com%2Fcss%3Ffamily%3DManrope;fillColor=#BEC8D2;" parent="hoIyyHPse7EPIckKOxvK-1" vertex="1">
            <mxGeometry x="448" y="256" width="8" height="8" as="geometry" />
          </mxCell>
        </object>
        <object label="49" id="leaf2-eth1/49">
          <mxCell style="ellipse;whiteSpace=wrap;html=1;aspect=fixed;fontColor=#FFFFFF;fontSize=6;strokeColor=#98A2AE;fontFamily=Manrope;fontSource=https%3A%2F%2Ffonts.googleapis.com%2Fcss%3Ffamily%3DManrope;fillColor=#BEC8D2;" parent="hoIyyHPse7EPIckKOxvK-1" vertex="1">
            <mxGeometry x="448" y="342" width="8" height="8" as="geometry" />
          </mxCell>
        </object>
        <object label="3" id="spine1-eth1/3">
          <mxCell style="ellipse;whiteSpace=wrap;html=1;aspect=fixed;fontColor=#FFFFFF;fontSize=6;strokeColor=#98A2AE;fontFamily=Manrope;fontSource=https%3A%2F%2Ffonts.googleapis.com%2Fcss%3Ffamily%3DManrope;fillColor=#BEC8D2;" parent="hoIyyHPse7EPIckKOxvK-1" vertex="1">
            <mxGeometry x="592" y="256" width="8" height="8" as="geometry" />
          </mxCell>
        </object>
        <object label="1" id="spine2-eth1/1">
          <mxCell style="ellipse;whiteSpace=wrap;html=1;aspect=fixed;fontColor=#FFFFFF;fontSize=6;strokeColor=#98A2AE;fontFamily=Manrope;fontSource=https%3A%2F%2Ffonts.googleapis.com%2Fcss%3Ffamily%3DManrope;fillColor=#BEC8D2;" parent="hoIyyHPse7EPIckKOxvK-1" vertex="1">
            <mxGeometry x="329" y="256" width="8" height="8" as="geometry" />
          </mxCell>
        </object>
        <object label="2" id="spine2-eth1/2">
          <mxCell style="ellipse;whiteSpace=wrap;html=1;aspect=fixed;fontColor=#FFFFFF;fontSize=6;strokeColor=#98A2AE;fontFamily=Manrope;fontSource=https%3A%2F%2Ffonts.googleapis.com%2Fcss%3Ffamily%3DManrope;fillColor=#BEC8D2;" parent="hoIyyHPse7EPIckKOxvK-1" vertex="1">
            <mxGeometry x="462" y="256" width="8" height="8" as="geometry" />
          </mxCell>
        </object>
        <object label="3" id="spine2-eth1/3">
          <mxCell style="ellipse;whiteSpace=wrap;html=1;aspect=fixed;fontColor=#FFFFFF;fontSize=6;strokeColor=#98A2AE;fontFamily=Manrope;fontSource=https%3A%2F%2Ffonts.googleapis.com%2Fcss%3Ffamily%3DManrope;fillColor=#BEC8D2;" parent="hoIyyHPse7EPIckKOxvK-1" vertex="1">
            <mxGeometry x="606" y="256" width="8" height="8" as="geometry" />
          </mxCell>
        </object>
        <object label="50" id="leaf2-eth1/50">
          <mxCell style="ellipse;whiteSpace=wrap;html=1;aspect=fixed;fontColor=#FFFFFF;fontSize=6;strokeColor=#98A2AE;fontFamily=Manrope;fontSource=https%3A%2F%2Ffonts.googleapis.com%2Fcss%3Ffamily%3DManrope;fillColor=#BEC8D2;" parent="hoIyyHPse7EPIckKOxvK-1" vertex="1">
            <mxGeometry x="462" y="342" width="8" height="8" as="geometry" />
          </mxCell>
        </object>
        <object label="49" id="leaf3-eth1/49">
          <mxCell style="ellipse;whiteSpace=wrap;html=1;aspect=fixed;fontColor=#FFFFFF;fontSize=6;strokeColor=#98A2AE;fontFamily=Manrope;fontSource=https%3A%2F%2Ffonts.googleapis.com%2Fcss%3Ffamily%3DManrope;fillColor=#BEC8D2;" parent="hoIyyHPse7EPIckKOxvK-1" vertex="1">
            <mxGeometry x="592" y="342" width="8" height="8" as="geometry" />
          </mxCell>
        </object>
        <object label="50" id="leaf3-eth1/50">
          <mxCell style="ellipse;whiteSpace=wrap;html=1;aspect=fixed;fontColor=#FFFFFF;fontSize=6;strokeColor=#98A2AE;fontFamily=Manrope;fontSource=https%3A%2F%2Ffonts.googleapis.com%2Fcss%3Ffamily%3DManrope;fillColor=#BEC8D2;" parent="hoIyyHPse7EPIckKOxvK-1" vertex="1">
            <mxGeometry x="606" y="342" width="8" height="8" as="geometry" />
          </mxCell>
        </object>
        <mxCell id="MzNvUIA4c6WraNlcx4m_-52" value="&lt;font style=&quot;font-size: 10px&quot;&gt;spine-2&lt;/font&gt;" style="text;html=1;align=center;verticalAlign=middle;resizable=0;points=[];autosize=1;fontSize=10;fontFamily=Manrope;fontStyle=0;fontColor=#FFFFFF;connectable=0;" parent="hoIyyHPse7EPIckKOxvK-1" vertex="1">
          <mxGeometry x="481" y="155" width="46" height="18" as="geometry" />
        </mxCell>
        <mxCell id="MzNvUIA4c6WraNlcx4m_-55" style="rounded=0;orthogonalLoop=1;jettySize=auto;html=1;startSize=2;endArrow=none;endFill=0;endSize=2;fontFamily=Manrope;fontSize=8;strokeColor=#98A2AE;fontSource=https%3A%2F%2Ffonts.googleapis.com%2Fcss%3Ffamily%3DManrope;entryX=0.5;entryY=1;entryDx=0;entryDy=0;exitX=0.5;exitY=0;exitDx=0;exitDy=0;startArrow=classicThin;startFill=1;" parent="hoIyyHPse7EPIckKOxvK-1" source="MzNvUIA4c6WraNlcx4m_-85" target="leaf1-eth1/1" edge="1">
          <mxGeometry relative="1" as="geometry">
            <mxPoint x="373" y="365" as="sourcePoint" />
            <mxPoint x="355" y="369" as="targetPoint" />
            <Array as="points" />
          </mxGeometry>
        </mxCell>
        <mxCell id="agJGtUolQpaysEPCJuB_-18" value="rate" style="edgeLabel;html=1;align=center;verticalAlign=middle;resizable=0;points=[];fontSize=6;fontFamily=Fira Code;fontColor=#FFFFFF;textOpacity=60;labelBackgroundColor=#4D5766;" parent="MzNvUIA4c6WraNlcx4m_-55" vertex="1" connectable="0">
          <mxGeometry x="0.1571" relative="1" as="geometry">
            <mxPoint as="offset" />
          </mxGeometry>
        </mxCell>
        <object label="1" id="leaf1-eth1/1">
          <mxCell style="ellipse;whiteSpace=wrap;html=1;aspect=fixed;fontColor=#FFFFFF;fontSize=6;strokeColor=#98A2AE;fontFamily=Manrope;fontSource=https%3A%2F%2Ffonts.googleapis.com%2Fcss%3Ffamily%3DManrope;fillColor=#BEC8D2;" parent="hoIyyHPse7EPIckKOxvK-1" vertex="1">
            <mxGeometry x="322" y="380" width="8" height="8" as="geometry" />
          </mxCell>
        </object>
        <mxCell id="MzNvUIA4c6WraNlcx4m_-78" value="" style="rounded=1;whiteSpace=wrap;html=1;strokeColor=none;arcSize=2;" parent="hoIyyHPse7EPIckKOxvK-1" vertex="1">
          <mxGeometry x="314.4" y="446.41" width="23" height="13.59" as="geometry" />
        </mxCell>
        <mxCell id="MzNvUIA4c6WraNlcx4m_-79" value="" style="shape=image;editableCssRules=\.color;verticalLabelPosition=bottom;labelBackgroundColor=#ffffff;verticalAlign=top;aspect=fixed;imageAspect=0;image=data:image/svg+xml,PHN2ZyB4bWxucz0iaHR0cDovL3d3dy53My5vcmcvMjAwMC9zdmciIHhtbG5zOnhsaW5rPSJodHRwOi8vd3d3LnczLm9yZy8xOTk5L3hsaW5rIiB2aWV3Qm94PSIwIDAgMTMxIDgxIiBmaWxsPSIjZmZmIiBmaWxsLXJ1bGU9ImV2ZW5vZGQiIHN0cm9rZT0iIzAwMCIgc3Ryb2tlLWxpbmVjYXA9InJvdW5kIiBzdHJva2UtbGluZWpvaW49InJvdW5kIj48dXNlIHhsaW5rOmhyZWY9IiNBIiB4PSIuNSIgeT0iLjUiLz48c3ltYm9sIGlkPSJBIiBvdmVyZmxvdz0idmlzaWJsZSI+PHBhdGggY2xhc3M9ImNvbG9yIiBkPSJNMTE5LjA3OCA2Mi43MDNWNy4yNzVjMC0yLjc0Ni0yLjU0LTcuMjc1LTUuNTgtNy4yNzVIMTYuNDc1Yy0zLjA0IDAtNi4wOCA0LjUzLTYuMDggNy4yNzV2NTUuNDI3Qy0uNDk4IDc0LjI0NC4wMDQgNzQuMjQ0LjAwNCA3NC4yNDQuMDA0IDc3LjUxNiAzLjA0NCA4MCA2Ljg1MiA4MGgxMTYuM2MzLjgwOCAwIDYuODQ4LTIuNzQ3IDYuODQ4LTUuNzU2bC0xMC45MjItMTEuNTR6TTczLjk3NSA3NS4yMzdoLTIwLjI4Yy0xLjAwNCAwLTIuMDM3LS40OTctMi4wMzctLjk5M2wyLjI3My0zLjc3YzAtLjQ5Ny43NjctLjc2IDEuNzctLjc2SDcxLjkxYy43NjcgMCAxLjUzNS4yNjMgMS41MzUuNzZsMi41NCAzLjc3Yy4wMy43My0xLjAwNC45OTMtMi4wMDcuOTkzaDB6bTQwLjI5Mi0xMi43OThIMTUuMjA1VjcuNzcyYzAtMS4yNTYgMS4yNy0zLjAxIDIuNzc1LTMuMDFoOTMuNzVjMS41MzUgMCAyLjU0IDEuNzUzIDIuNTQgM1Y2Mi40NHoiIGZpbGw9IiMyYTMyODIiIHN0cm9rZT0ibm9uZSIvPjwvc3ltYm9sPjxzdHlsZSB0eXBlPSJ0ZXh0L2NzcyI+LmNvbG9yIHsgZmlsbDogcmdiKDAsIDE3LCA1Myk7IH0gPC9zdHlsZT48L3N2Zz4=;" parent="hoIyyHPse7EPIckKOxvK-1" vertex="1">
          <mxGeometry x="310.4" y="444.56000000000006" width="31.197407407407447" height="19.290000000000017" as="geometry" />
        </mxCell>
        <mxCell id="MzNvUIA4c6WraNlcx4m_-80" value="" style="shape=image;verticalLabelPosition=bottom;labelBackgroundColor=#ffffff;verticalAlign=top;aspect=fixed;imageAspect=0;image=data:image/svg+xml,PHN2ZyB4bWxucz0iaHR0cDovL3d3dy53My5vcmcvMjAwMC9zdmciIHhtbG5zOnhsaW5rPSJodHRwOi8vd3d3LnczLm9yZy8xOTk5L3hsaW5rIiB2aWV3Qm94PSIwIDAgNjUgNTciIGZpbGw9IiNmZmYiIGZpbGwtcnVsZT0iZXZlbm9kZCIgc3Ryb2tlPSIjMDAwIiBzdHJva2UtbGluZWNhcD0icm91bmQiIHN0cm9rZS1saW5lam9pbj0icm91bmQiPjx1c2UgeGxpbms6aHJlZj0iI0EiIHg9Ii41IiB5PSIuNSIvPjxzeW1ib2wgaWQ9IkEiIG92ZXJmbG93PSJ2aXNpYmxlIj48ZyBzdHJva2U9Im5vbmUiIGZpbGw9IiMwZDU5N2YiIGZpbGwtcnVsZT0ibm9uemVybyI+PHBhdGggZD0iTTIzLjI1MiAzNC41Mjd2LTYuNzQ1bC00Ljg1NSA0Ljg2NGMuNDc0LjMzMy45NjguNjM1IDEuNDguOTA2LjQ2My4yNDMuODcuNDM0IDEuMzAzLjU4YTcuOTcgNy45NyAwIDAgMCAxLjEzLjMwNGMuMzQ4LjA2NC42Ni4wOTMuOTUuMDk2bTI0LjgyMi0uNTYyYTEuMTcgMS4xNyAwIDAgMCAuMTQyLjFjLjEyMy4wNzguMjUyLjE0NS4zODUuMjAzYTIuOTMgMi45MyAwIDAgMCAuNjM3LjE5NGMuMjk2LjA2LjU5OC4wODguOS4wODdhNS44NCA1Ljg0IDAgMCAwIC45NTUtLjA4NyA3LjI0IDcuMjQgMCAwIDAgMS4xMzgtLjMwMWMuNDUzLS4xNi44OTUtLjM1NCAxLjMyLS41OC41Mi0uMjc0IDEuMDItLjU4IDEuNTAzLS45MThsLTMuNjg1LTMuNi0xMi4yLTEyLjI1OC01LjM1NiA1LjM1Ni03LjIzLTcuNDU1TDguNDQgMzIuNjQ3Yy40OC4zMzcuOTguNjQ0IDEuNS45MTguNDcuMjQ2LjkuNDM0IDEuMzE3LjU4YTcuMTggNy4xOCAwIDAgMCAxLjEzNS4zMDEgNS41MyA1LjUzIDAgMCAwIC45NTUuMDg3IDQuNTMgNC41MyAwIDAgMCAuOS0uMDg3IDMuMjkgMy4yOSAwIDAgMCAuNjM3LS4xOTRjLjEzNC0uMDU0LjI2My0uMTIuMzg1LS4xOTdsLjE0NS0uMTA0IDguMTkzLTguMTkzIDIuOTI0LTIuODA4IDguMTA2IDguMTA2IDIuODM3IDIuOTEyYy4wNDYuMDM3LjA5NC4wNy4xNDUuMS4xMjIuMDc4LjI1LjE0NS4zODUuMmEzLjQ5IDMuNDkgMCAwIDAgLjYzNy4xOTRjLjI1NS4wNTIuNTU2LjA4Ny45MDMuMDg3YTUuODQgNS44NCAwIDAgMCAuOTU1LS4wODdjLjM4Ny0uMDY4Ljc2OC0uMTY4IDEuMTM4LS4zYTkuOTQgOS45NCAwIDAgMCAxLjMyLS41NzljLjUyLS4yNzQgMS4wMi0uNTggMS41MDMtLjkxOGwtNi41MDgtNi4zNyAxLjItMS4yIDUuNjMgNS42MyAzLjI4MyAzLjI1NE00Ny45OTYuMDJsMTUuOTk4IDI3LjcxNC0xNS45OSAyNy42OTRIMTUuOTk4TDAgMjcuNzE0IDE1Ljk5OCAweiIvPjxwYXRoIGQ9Ik0zOC4wMjIgMjYuMzY3TDMzLjc2IDIyLjExbC4zMDQtLjMwNCA0LjMgNC4yNDR6Ii8+PC9nPjwvc3ltYm9sPjwvc3ZnPg==;fontColor=#001135;" parent="hoIyyHPse7EPIckKOxvK-1" vertex="1">
          <mxGeometry x="320.2922768416326" y="448.2038888888889" width="11.40491481481483" height="10.002222222222235" as="geometry" />
        </mxCell>
        <mxCell id="MzNvUIA4c6WraNlcx4m_-81" value="&lt;font style=&quot;font-size: 10px&quot;&gt;client-1&lt;/font&gt;" style="text;html=1;align=center;verticalAlign=middle;resizable=0;points=[];autosize=1;fontSize=10;fontFamily=Manrope;fontStyle=0;fontColor=#FFFFFF;" parent="hoIyyHPse7EPIckKOxvK-1" vertex="1">
          <mxGeometry x="303" y="460" width="46" height="18" as="geometry" />
        </mxCell>
        <mxCell id="MzNvUIA4c6WraNlcx4m_-82" value="eth1" style="whiteSpace=wrap;html=1;fontFamily=Manrope;fontSource=https%3A%2F%2Ffonts.googleapis.com%2Fcss%3Ffamily%3DManrope;fontSize=6;align=center;fillColor=#BEC8D2;fontColor=#FFFFFF;strokeColor=#98A2AE;perimeterSpacing=0;rounded=1;" parent="hoIyyHPse7EPIckKOxvK-1" vertex="1">
          <mxGeometry x="319.4" y="439" width="14" height="6" as="geometry" />
        </mxCell>
        <mxCell id="MzNvUIA4c6WraNlcx4m_-87" style="rounded=0;orthogonalLoop=1;jettySize=auto;html=1;startSize=6;endArrow=classicThin;endFill=1;endSize=2;fontFamily=Manrope;fontSize=8;strokeColor=#98A2AE;fontSource=https%3A%2F%2Ffonts.googleapis.com%2Fcss%3Ffamily%3DManrope;entryX=0.5;entryY=1;entryDx=0;entryDy=0;exitX=0.5;exitY=0;exitDx=0;exitDy=0;" parent="hoIyyHPse7EPIckKOxvK-1" source="MzNvUIA4c6WraNlcx4m_-82" target="MzNvUIA4c6WraNlcx4m_-85" edge="1">
          <mxGeometry relative="1" as="geometry">
            <mxPoint x="326" y="432" as="sourcePoint" />
            <mxPoint x="326" y="388.0000000000001" as="targetPoint" />
            <Array as="points" />
          </mxGeometry>
        </mxCell>
        <mxCell id="agJGtUolQpaysEPCJuB_-21" value="rate" style="edgeLabel;html=1;align=center;verticalAlign=middle;resizable=0;points=[];fontSize=6;fontFamily=Fira Code;fontColor=#FFFFFF;textOpacity=60;labelBackgroundColor=#4D5766;" parent="MzNvUIA4c6WraNlcx4m_-87" vertex="1" connectable="0">
          <mxGeometry x="-0.2151" relative="1" as="geometry">
            <mxPoint as="offset" />
          </mxGeometry>
        </mxCell>
        <mxCell id="MzNvUIA4c6WraNlcx4m_-85" value="" style="ellipse;whiteSpace=wrap;html=1;aspect=fixed;fontColor=#FFFFFF;fontSize=6;fontFamily=Manrope;fontSource=https%3A%2F%2Ffonts.googleapis.com%2Fcss%3Ffamily%3DManrope;fillColor=#BEC8D2;strokeColor=none;" parent="hoIyyHPse7EPIckKOxvK-1" vertex="1">
          <mxGeometry x="324.1" y="412" width="4" height="4" as="geometry" />
        </mxCell>
        <mxCell id="MzNvUIA4c6WraNlcx4m_-89" style="rounded=0;orthogonalLoop=1;jettySize=auto;html=1;startSize=2;endArrow=none;endFill=0;endSize=2;fontFamily=Manrope;fontSize=8;strokeColor=#98A2AE;fontSource=https%3A%2F%2Ffonts.googleapis.com%2Fcss%3Ffamily%3DManrope;entryX=0.5;entryY=1;entryDx=0;entryDy=0;exitX=0.5;exitY=0;exitDx=0;exitDy=0;startArrow=classicThin;startFill=1;" parent="hoIyyHPse7EPIckKOxvK-1" source="MzNvUIA4c6WraNlcx4m_-97" target="leaf2-eth1/1" edge="1">
          <mxGeometry relative="1" as="geometry">
            <mxPoint x="506" y="365" as="sourcePoint" />
            <mxPoint x="488" y="369" as="targetPoint" />
            <Array as="points" />
          </mxGeometry>
        </mxCell>
        <mxCell id="agJGtUolQpaysEPCJuB_-19" value="rate" style="edgeLabel;html=1;align=center;verticalAlign=middle;resizable=0;points=[];fontSize=6;fontFamily=Fira Code;fontColor=#FFFFFF;textOpacity=60;labelBackgroundColor=#4D5766;" parent="MzNvUIA4c6WraNlcx4m_-89" vertex="1" connectable="0">
          <mxGeometry x="0.2345" relative="1" as="geometry">
            <mxPoint as="offset" />
          </mxGeometry>
        </mxCell>
        <object label="1" id="leaf2-eth1/1">
          <mxCell style="ellipse;whiteSpace=wrap;html=1;aspect=fixed;fontColor=#FFFFFF;fontSize=6;strokeColor=#98A2AE;fontFamily=Manrope;fontSource=https%3A%2F%2Ffonts.googleapis.com%2Fcss%3Ffamily%3DManrope;fillColor=#BEC8D2;" parent="hoIyyHPse7EPIckKOxvK-1" vertex="1">
            <mxGeometry x="455" y="380" width="8" height="8" as="geometry" />
          </mxCell>
        </object>
        <mxCell id="MzNvUIA4c6WraNlcx4m_-91" value="" style="rounded=1;whiteSpace=wrap;html=1;strokeColor=none;arcSize=2;" parent="hoIyyHPse7EPIckKOxvK-1" vertex="1">
          <mxGeometry x="447.4" y="446.41" width="23" height="13.59" as="geometry" />
        </mxCell>
        <mxCell id="MzNvUIA4c6WraNlcx4m_-92" value="" style="shape=image;editableCssRules=\.color;verticalLabelPosition=bottom;labelBackgroundColor=#ffffff;verticalAlign=top;aspect=fixed;imageAspect=0;image=data:image/svg+xml,PHN2ZyB4bWxucz0iaHR0cDovL3d3dy53My5vcmcvMjAwMC9zdmciIHhtbG5zOnhsaW5rPSJodHRwOi8vd3d3LnczLm9yZy8xOTk5L3hsaW5rIiB2aWV3Qm94PSIwIDAgMTMxIDgxIiBmaWxsPSIjZmZmIiBmaWxsLXJ1bGU9ImV2ZW5vZGQiIHN0cm9rZT0iIzAwMCIgc3Ryb2tlLWxpbmVjYXA9InJvdW5kIiBzdHJva2UtbGluZWpvaW49InJvdW5kIj48dXNlIHhsaW5rOmhyZWY9IiNBIiB4PSIuNSIgeT0iLjUiLz48c3ltYm9sIGlkPSJBIiBvdmVyZmxvdz0idmlzaWJsZSI+PHBhdGggY2xhc3M9ImNvbG9yIiBkPSJNMTE5LjA3OCA2Mi43MDNWNy4yNzVjMC0yLjc0Ni0yLjU0LTcuMjc1LTUuNTgtNy4yNzVIMTYuNDc1Yy0zLjA0IDAtNi4wOCA0LjUzLTYuMDggNy4yNzV2NTUuNDI3Qy0uNDk4IDc0LjI0NC4wMDQgNzQuMjQ0LjAwNCA3NC4yNDQuMDA0IDc3LjUxNiAzLjA0NCA4MCA2Ljg1MiA4MGgxMTYuM2MzLjgwOCAwIDYuODQ4LTIuNzQ3IDYuODQ4LTUuNzU2bC0xMC45MjItMTEuNTR6TTczLjk3NSA3NS4yMzdoLTIwLjI4Yy0xLjAwNCAwLTIuMDM3LS40OTctMi4wMzctLjk5M2wyLjI3My0zLjc3YzAtLjQ5Ny43NjctLjc2IDEuNzctLjc2SDcxLjkxYy43NjcgMCAxLjUzNS4yNjMgMS41MzUuNzZsMi41NCAzLjc3Yy4wMy43My0xLjAwNC45OTMtMi4wMDcuOTkzaDB6bTQwLjI5Mi0xMi43OThIMTUuMjA1VjcuNzcyYzAtMS4yNTYgMS4yNy0zLjAxIDIuNzc1LTMuMDFoOTMuNzVjMS41MzUgMCAyLjU0IDEuNzUzIDIuNTQgM1Y2Mi40NHoiIGZpbGw9IiMyYTMyODIiIHN0cm9rZT0ibm9uZSIvPjwvc3ltYm9sPjxzdHlsZSB0eXBlPSJ0ZXh0L2NzcyI+LmNvbG9yIHsgZmlsbDogcmdiKDAsIDE3LCA1Myk7IH0gPC9zdHlsZT48L3N2Zz4=;" parent="hoIyyHPse7EPIckKOxvK-1" vertex="1">
          <mxGeometry x="443.4" y="444.56000000000006" width="31.197407407407447" height="19.290000000000017" as="geometry" />
        </mxCell>
        <mxCell id="MzNvUIA4c6WraNlcx4m_-93" value="" style="shape=image;verticalLabelPosition=bottom;labelBackgroundColor=#ffffff;verticalAlign=top;aspect=fixed;imageAspect=0;image=data:image/svg+xml,PHN2ZyB4bWxucz0iaHR0cDovL3d3dy53My5vcmcvMjAwMC9zdmciIHhtbG5zOnhsaW5rPSJodHRwOi8vd3d3LnczLm9yZy8xOTk5L3hsaW5rIiB2aWV3Qm94PSIwIDAgNjUgNTciIGZpbGw9IiNmZmYiIGZpbGwtcnVsZT0iZXZlbm9kZCIgc3Ryb2tlPSIjMDAwIiBzdHJva2UtbGluZWNhcD0icm91bmQiIHN0cm9rZS1saW5lam9pbj0icm91bmQiPjx1c2UgeGxpbms6aHJlZj0iI0EiIHg9Ii41IiB5PSIuNSIvPjxzeW1ib2wgaWQ9IkEiIG92ZXJmbG93PSJ2aXNpYmxlIj48ZyBzdHJva2U9Im5vbmUiIGZpbGw9IiMwZDU5N2YiIGZpbGwtcnVsZT0ibm9uemVybyI+PHBhdGggZD0iTTIzLjI1MiAzNC41Mjd2LTYuNzQ1bC00Ljg1NSA0Ljg2NGMuNDc0LjMzMy45NjguNjM1IDEuNDguOTA2LjQ2My4yNDMuODcuNDM0IDEuMzAzLjU4YTcuOTcgNy45NyAwIDAgMCAxLjEzLjMwNGMuMzQ4LjA2NC42Ni4wOTMuOTUuMDk2bTI0LjgyMi0uNTYyYTEuMTcgMS4xNyAwIDAgMCAuMTQyLjFjLjEyMy4wNzguMjUyLjE0NS4zODUuMjAzYTIuOTMgMi45MyAwIDAgMCAuNjM3LjE5NGMuMjk2LjA2LjU5OC4wODguOS4wODdhNS44NCA1Ljg0IDAgMCAwIC45NTUtLjA4NyA3LjI0IDcuMjQgMCAwIDAgMS4xMzgtLjMwMWMuNDUzLS4xNi44OTUtLjM1NCAxLjMyLS41OC41Mi0uMjc0IDEuMDItLjU4IDEuNTAzLS45MThsLTMuNjg1LTMuNi0xMi4yLTEyLjI1OC01LjM1NiA1LjM1Ni03LjIzLTcuNDU1TDguNDQgMzIuNjQ3Yy40OC4zMzcuOTguNjQ0IDEuNS45MTguNDcuMjQ2LjkuNDM0IDEuMzE3LjU4YTcuMTggNy4xOCAwIDAgMCAxLjEzNS4zMDEgNS41MyA1LjUzIDAgMCAwIC45NTUuMDg3IDQuNTMgNC41MyAwIDAgMCAuOS0uMDg3IDMuMjkgMy4yOSAwIDAgMCAuNjM3LS4xOTRjLjEzNC0uMDU0LjI2My0uMTIuMzg1LS4xOTdsLjE0NS0uMTA0IDguMTkzLTguMTkzIDIuOTI0LTIuODA4IDguMTA2IDguMTA2IDIuODM3IDIuOTEyYy4wNDYuMDM3LjA5NC4wNy4xNDUuMS4xMjIuMDc4LjI1LjE0NS4zODUuMmEzLjQ5IDMuNDkgMCAwIDAgLjYzNy4xOTRjLjI1NS4wNTIuNTU2LjA4Ny45MDMuMDg3YTUuODQgNS44NCAwIDAgMCAuOTU1LS4wODdjLjM4Ny0uMDY4Ljc2OC0uMTY4IDEuMTM4LS4zYTkuOTQgOS45NCAwIDAgMCAxLjMyLS41NzljLjUyLS4yNzQgMS4wMi0uNTggMS41MDMtLjkxOGwtNi41MDgtNi4zNyAxLjItMS4yIDUuNjMgNS42MyAzLjI4MyAzLjI1NE00Ny45OTYuMDJsMTUuOTk4IDI3LjcxNC0xNS45OSAyNy42OTRIMTUuOTk4TDAgMjcuNzE0IDE1Ljk5OCAweiIvPjxwYXRoIGQ9Ik0zOC4wMjIgMjYuMzY3TDMzLjc2IDIyLjExbC4zMDQtLjMwNCA0LjMgNC4yNDR6Ii8+PC9nPjwvc3ltYm9sPjwvc3ZnPg==;fontColor=#001135;" parent="hoIyyHPse7EPIckKOxvK-1" vertex="1">
          <mxGeometry x="453.2922768416326" y="448.2038888888889" width="11.40491481481483" height="10.002222222222235" as="geometry" />
        </mxCell>
        <mxCell id="MzNvUIA4c6WraNlcx4m_-94" value="&lt;font style=&quot;font-size: 10px&quot;&gt;client-2&lt;/font&gt;" style="text;html=1;align=center;verticalAlign=middle;resizable=0;points=[];autosize=1;fontSize=10;fontFamily=Manrope;fontStyle=0;fontColor=#FFFFFF;" parent="hoIyyHPse7EPIckKOxvK-1" vertex="1">
          <mxGeometry x="436" y="461" width="46" height="16" as="geometry" />
        </mxCell>
        <mxCell id="MzNvUIA4c6WraNlcx4m_-95" value="eth1" style="whiteSpace=wrap;html=1;fontFamily=Manrope;fontSource=https%3A%2F%2Ffonts.googleapis.com%2Fcss%3Ffamily%3DManrope;fontSize=6;align=center;fillColor=#BEC8D2;fontColor=#FFFFFF;strokeColor=#98A2AE;perimeterSpacing=0;rounded=1;" parent="hoIyyHPse7EPIckKOxvK-1" vertex="1">
          <mxGeometry x="452.4" y="439" width="14" height="6" as="geometry" />
        </mxCell>
        <mxCell id="MzNvUIA4c6WraNlcx4m_-96" style="rounded=0;orthogonalLoop=1;jettySize=auto;html=1;startSize=6;endArrow=classicThin;endFill=1;endSize=2;fontFamily=Manrope;fontSize=8;strokeColor=#98A2AE;fontSource=https%3A%2F%2Ffonts.googleapis.com%2Fcss%3Ffamily%3DManrope;entryX=0.5;entryY=1;entryDx=0;entryDy=0;exitX=0.5;exitY=0;exitDx=0;exitDy=0;" parent="hoIyyHPse7EPIckKOxvK-1" source="MzNvUIA4c6WraNlcx4m_-95" target="MzNvUIA4c6WraNlcx4m_-97" edge="1">
          <mxGeometry relative="1" as="geometry">
            <mxPoint x="459" y="432" as="sourcePoint" />
            <mxPoint x="459" y="388.0000000000001" as="targetPoint" />
            <Array as="points" />
          </mxGeometry>
        </mxCell>
        <mxCell id="agJGtUolQpaysEPCJuB_-22" value="rate" style="edgeLabel;html=1;align=center;verticalAlign=middle;resizable=0;points=[];fontSize=6;fontFamily=Fira Code;fontColor=#FFFFFF;textOpacity=60;labelBackgroundColor=#4D5766;" parent="MzNvUIA4c6WraNlcx4m_-96" vertex="1" connectable="0">
          <mxGeometry x="-0.2151" relative="1" as="geometry">
            <mxPoint as="offset" />
          </mxGeometry>
        </mxCell>
        <mxCell id="MzNvUIA4c6WraNlcx4m_-97" value="" style="ellipse;whiteSpace=wrap;html=1;aspect=fixed;fontColor=#FFFFFF;fontSize=6;fontFamily=Manrope;fontSource=https%3A%2F%2Ffonts.googleapis.com%2Fcss%3Ffamily%3DManrope;fillColor=#BEC8D2;strokeColor=none;" parent="hoIyyHPse7EPIckKOxvK-1" vertex="1">
          <mxGeometry x="457.1" y="412" width="4" height="4" as="geometry" />
        </mxCell>
        <mxCell id="MzNvUIA4c6WraNlcx4m_-100" style="rounded=0;orthogonalLoop=1;jettySize=auto;html=1;startSize=2;endArrow=none;endFill=0;endSize=2;fontFamily=Manrope;fontSize=8;strokeColor=#98A2AE;fontSource=https%3A%2F%2Ffonts.googleapis.com%2Fcss%3Ffamily%3DManrope;entryX=0.5;entryY=1;entryDx=0;entryDy=0;exitX=0.5;exitY=0;exitDx=0;exitDy=0;startArrow=classicThin;startFill=1;" parent="hoIyyHPse7EPIckKOxvK-1" source="MzNvUIA4c6WraNlcx4m_-108" target="leaf3-eth1/1" edge="1">
          <mxGeometry relative="1" as="geometry">
            <mxPoint x="650" y="365" as="sourcePoint" />
            <mxPoint x="632" y="369" as="targetPoint" />
            <Array as="points" />
          </mxGeometry>
        </mxCell>
        <mxCell id="agJGtUolQpaysEPCJuB_-20" value="rate" style="edgeLabel;html=1;align=center;verticalAlign=middle;resizable=0;points=[];fontSize=6;fontFamily=Fira Code;fontColor=#FFFFFF;textOpacity=60;labelBackgroundColor=#4D5766;" parent="MzNvUIA4c6WraNlcx4m_-100" vertex="1" connectable="0">
          <mxGeometry x="0.2346" relative="1" as="geometry">
            <mxPoint as="offset" />
          </mxGeometry>
        </mxCell>
        <object label="1" id="leaf3-eth1/1">
          <mxCell style="ellipse;whiteSpace=wrap;html=1;aspect=fixed;fontColor=#FFFFFF;fontSize=6;strokeColor=#98A2AE;fontFamily=Manrope;fontSource=https%3A%2F%2Ffonts.googleapis.com%2Fcss%3Ffamily%3DManrope;fillColor=#BEC8D2;" parent="hoIyyHPse7EPIckKOxvK-1" vertex="1">
            <mxGeometry x="599" y="380" width="8" height="8" as="geometry" />
          </mxCell>
        </object>
        <mxCell id="MzNvUIA4c6WraNlcx4m_-102" value="" style="rounded=1;whiteSpace=wrap;html=1;strokeColor=none;arcSize=2;" parent="hoIyyHPse7EPIckKOxvK-1" vertex="1">
          <mxGeometry x="591.4" y="446.4100000000001" width="23" height="13.59" as="geometry" />
        </mxCell>
        <mxCell id="MzNvUIA4c6WraNlcx4m_-103" value="" style="shape=image;editableCssRules=\.color;verticalLabelPosition=bottom;labelBackgroundColor=#ffffff;verticalAlign=top;aspect=fixed;imageAspect=0;image=data:image/svg+xml,PHN2ZyB4bWxucz0iaHR0cDovL3d3dy53My5vcmcvMjAwMC9zdmciIHhtbG5zOnhsaW5rPSJodHRwOi8vd3d3LnczLm9yZy8xOTk5L3hsaW5rIiB2aWV3Qm94PSIwIDAgMTMxIDgxIiBmaWxsPSIjZmZmIiBmaWxsLXJ1bGU9ImV2ZW5vZGQiIHN0cm9rZT0iIzAwMCIgc3Ryb2tlLWxpbmVjYXA9InJvdW5kIiBzdHJva2UtbGluZWpvaW49InJvdW5kIj48dXNlIHhsaW5rOmhyZWY9IiNBIiB4PSIuNSIgeT0iLjUiLz48c3ltYm9sIGlkPSJBIiBvdmVyZmxvdz0idmlzaWJsZSI+PHBhdGggY2xhc3M9ImNvbG9yIiBkPSJNMTE5LjA3OCA2Mi43MDNWNy4yNzVjMC0yLjc0Ni0yLjU0LTcuMjc1LTUuNTgtNy4yNzVIMTYuNDc1Yy0zLjA0IDAtNi4wOCA0LjUzLTYuMDggNy4yNzV2NTUuNDI3Qy0uNDk4IDc0LjI0NC4wMDQgNzQuMjQ0LjAwNCA3NC4yNDQuMDA0IDc3LjUxNiAzLjA0NCA4MCA2Ljg1MiA4MGgxMTYuM2MzLjgwOCAwIDYuODQ4LTIuNzQ3IDYuODQ4LTUuNzU2bC0xMC45MjItMTEuNTR6TTczLjk3NSA3NS4yMzdoLTIwLjI4Yy0xLjAwNCAwLTIuMDM3LS40OTctMi4wMzctLjk5M2wyLjI3My0zLjc3YzAtLjQ5Ny43NjctLjc2IDEuNzctLjc2SDcxLjkxYy43NjcgMCAxLjUzNS4yNjMgMS41MzUuNzZsMi41NCAzLjc3Yy4wMy43My0xLjAwNC45OTMtMi4wMDcuOTkzaDB6bTQwLjI5Mi0xMi43OThIMTUuMjA1VjcuNzcyYzAtMS4yNTYgMS4yNy0zLjAxIDIuNzc1LTMuMDFoOTMuNzVjMS41MzUgMCAyLjU0IDEuNzUzIDIuNTQgM1Y2Mi40NHoiIGZpbGw9IiMyYTMyODIiIHN0cm9rZT0ibm9uZSIvPjwvc3ltYm9sPjxzdHlsZSB0eXBlPSJ0ZXh0L2NzcyI+LmNvbG9yIHsgZmlsbDogcmdiKDAsIDE3LCA1Myk7IH0gPC9zdHlsZT48L3N2Zz4=;" parent="hoIyyHPse7EPIckKOxvK-1" vertex="1">
          <mxGeometry x="587.4" y="444.56000000000006" width="31.197407407407447" height="19.290000000000017" as="geometry" />
        </mxCell>
        <mxCell id="MzNvUIA4c6WraNlcx4m_-104" value="" style="shape=image;verticalLabelPosition=bottom;labelBackgroundColor=#ffffff;verticalAlign=top;aspect=fixed;imageAspect=0;image=data:image/svg+xml,PHN2ZyB4bWxucz0iaHR0cDovL3d3dy53My5vcmcvMjAwMC9zdmciIHhtbG5zOnhsaW5rPSJodHRwOi8vd3d3LnczLm9yZy8xOTk5L3hsaW5rIiB2aWV3Qm94PSIwIDAgNjUgNTciIGZpbGw9IiNmZmYiIGZpbGwtcnVsZT0iZXZlbm9kZCIgc3Ryb2tlPSIjMDAwIiBzdHJva2UtbGluZWNhcD0icm91bmQiIHN0cm9rZS1saW5lam9pbj0icm91bmQiPjx1c2UgeGxpbms6aHJlZj0iI0EiIHg9Ii41IiB5PSIuNSIvPjxzeW1ib2wgaWQ9IkEiIG92ZXJmbG93PSJ2aXNpYmxlIj48ZyBzdHJva2U9Im5vbmUiIGZpbGw9IiMwZDU5N2YiIGZpbGwtcnVsZT0ibm9uemVybyI+PHBhdGggZD0iTTIzLjI1MiAzNC41Mjd2LTYuNzQ1bC00Ljg1NSA0Ljg2NGMuNDc0LjMzMy45NjguNjM1IDEuNDguOTA2LjQ2My4yNDMuODcuNDM0IDEuMzAzLjU4YTcuOTcgNy45NyAwIDAgMCAxLjEzLjMwNGMuMzQ4LjA2NC42Ni4wOTMuOTUuMDk2bTI0LjgyMi0uNTYyYTEuMTcgMS4xNyAwIDAgMCAuMTQyLjFjLjEyMy4wNzguMjUyLjE0NS4zODUuMjAzYTIuOTMgMi45MyAwIDAgMCAuNjM3LjE5NGMuMjk2LjA2LjU5OC4wODguOS4wODdhNS44NCA1Ljg0IDAgMCAwIC45NTUtLjA4NyA3LjI0IDcuMjQgMCAwIDAgMS4xMzgtLjMwMWMuNDUzLS4xNi44OTUtLjM1NCAxLjMyLS41OC41Mi0uMjc0IDEuMDItLjU4IDEuNTAzLS45MThsLTMuNjg1LTMuNi0xMi4yLTEyLjI1OC01LjM1NiA1LjM1Ni03LjIzLTcuNDU1TDguNDQgMzIuNjQ3Yy40OC4zMzcuOTguNjQ0IDEuNS45MTguNDcuMjQ2LjkuNDM0IDEuMzE3LjU4YTcuMTggNy4xOCAwIDAgMCAxLjEzNS4zMDEgNS41MyA1LjUzIDAgMCAwIC45NTUuMDg3IDQuNTMgNC41MyAwIDAgMCAuOS0uMDg3IDMuMjkgMy4yOSAwIDAgMCAuNjM3LS4xOTRjLjEzNC0uMDU0LjI2My0uMTIuMzg1LS4xOTdsLjE0NS0uMTA0IDguMTkzLTguMTkzIDIuOTI0LTIuODA4IDguMTA2IDguMTA2IDIuODM3IDIuOTEyYy4wNDYuMDM3LjA5NC4wNy4xNDUuMS4xMjIuMDc4LjI1LjE0NS4zODUuMmEzLjQ5IDMuNDkgMCAwIDAgLjYzNy4xOTRjLjI1NS4wNTIuNTU2LjA4Ny45MDMuMDg3YTUuODQgNS44NCAwIDAgMCAuOTU1LS4wODdjLjM4Ny0uMDY4Ljc2OC0uMTY4IDEuMTM4LS4zYTkuOTQgOS45NCAwIDAgMCAxLjMyLS41NzljLjUyLS4yNzQgMS4wMi0uNTggMS41MDMtLjkxOGwtNi41MDgtNi4zNyAxLjItMS4yIDUuNjMgNS42MyAzLjI4MyAzLjI1NE00Ny45OTYuMDJsMTUuOTk4IDI3LjcxNC0xNS45OSAyNy42OTRIMTUuOTk4TDAgMjcuNzE0IDE1Ljk5OCAweiIvPjxwYXRoIGQ9Ik0zOC4wMjIgMjYuMzY3TDMzLjc2IDIyLjExbC4zMDQtLjMwNCA0LjMgNC4yNDR6Ii8+PC9nPjwvc3ltYm9sPjwvc3ZnPg==;fontColor=#001135;" parent="hoIyyHPse7EPIckKOxvK-1" vertex="1">
          <mxGeometry x="597.2922768416327" y="448.20388888888897" width="11.40491481481483" height="10.002222222222235" as="geometry" />
        </mxCell>
        <mxCell id="MzNvUIA4c6WraNlcx4m_-105" value="&lt;font style=&quot;font-size: 10px&quot;&gt;client-3&lt;/font&gt;" style="text;html=1;align=center;verticalAlign=middle;resizable=0;points=[];autosize=1;fontSize=10;fontFamily=Manrope;fontStyle=0;fontColor=#FFFFFF;" parent="hoIyyHPse7EPIckKOxvK-1" vertex="1">
          <mxGeometry x="581" y="461" width="45" height="16" as="geometry" />
        </mxCell>
        <mxCell id="MzNvUIA4c6WraNlcx4m_-106" value="eth1" style="whiteSpace=wrap;html=1;fontFamily=Manrope;fontSource=https%3A%2F%2Ffonts.googleapis.com%2Fcss%3Ffamily%3DManrope;fontSize=6;align=center;fillColor=#BEC8D2;fontColor=#FFFFFF;strokeColor=#98A2AE;perimeterSpacing=0;rounded=1;" parent="hoIyyHPse7EPIckKOxvK-1" vertex="1">
          <mxGeometry x="596.4" y="439" width="14" height="6" as="geometry" />
        </mxCell>
        <mxCell id="MzNvUIA4c6WraNlcx4m_-107" style="rounded=0;orthogonalLoop=1;jettySize=auto;html=1;startSize=6;endArrow=classicThin;endFill=1;endSize=2;fontFamily=Manrope;fontSize=8;strokeColor=#98A2AE;fontSource=https%3A%2F%2Ffonts.googleapis.com%2Fcss%3Ffamily%3DManrope;entryX=0.5;entryY=1;entryDx=0;entryDy=0;exitX=0.5;exitY=0;exitDx=0;exitDy=0;" parent="hoIyyHPse7EPIckKOxvK-1" source="MzNvUIA4c6WraNlcx4m_-106" target="MzNvUIA4c6WraNlcx4m_-108" edge="1">
          <mxGeometry relative="1" as="geometry">
            <mxPoint x="603" y="432" as="sourcePoint" />
            <mxPoint x="603" y="388.0000000000001" as="targetPoint" />
            <Array as="points" />
          </mxGeometry>
        </mxCell>
        <mxCell id="agJGtUolQpaysEPCJuB_-23" value="rate" style="edgeLabel;html=1;align=center;verticalAlign=middle;resizable=0;points=[];fontSize=6;fontFamily=Fira Code;fontColor=#FFFFFF;textOpacity=60;labelBackgroundColor=#4D5766;" parent="MzNvUIA4c6WraNlcx4m_-107" vertex="1" connectable="0">
          <mxGeometry x="-0.277" y="-1" relative="1" as="geometry">
            <mxPoint x="-0.89" y="-0.62" as="offset" />
          </mxGeometry>
        </mxCell>
        <mxCell id="MzNvUIA4c6WraNlcx4m_-108" value="" style="ellipse;whiteSpace=wrap;html=1;aspect=fixed;fontColor=#FFFFFF;fontSize=6;fontFamily=Manrope;fontSource=https%3A%2F%2Ffonts.googleapis.com%2Fcss%3Ffamily%3DManrope;fillColor=#BEC8D2;strokeColor=none;" parent="hoIyyHPse7EPIckKOxvK-1" vertex="1">
          <mxGeometry x="601.1" y="412" width="4" height="4" as="geometry" />
        </mxCell>
        <mxCell id="MzNvUIA4c6WraNlcx4m_-111" value="" style="ellipse;whiteSpace=wrap;html=1;aspect=fixed;fontColor=#FFFFFF;fontSize=6;fontFamily=Manrope;fontSource=https%3A%2F%2Ffonts.googleapis.com%2Fcss%3Ffamily%3DManrope;fillColor=#BEC8D2;strokeColor=none;" parent="hoIyyHPse7EPIckKOxvK-1" vertex="1">
          <mxGeometry x="319" y="301" width="4" height="4" as="geometry" />
        </mxCell>
        <mxCell id="MzNvUIA4c6WraNlcx4m_-112" style="rounded=0;orthogonalLoop=1;jettySize=auto;html=1;startSize=6;endArrow=classicThin;endFill=1;endSize=2;fontFamily=Manrope;fontSize=8;strokeColor=#98A2AE;fontSource=https%3A%2F%2Ffonts.googleapis.com%2Fcss%3Ffamily%3DManrope;" parent="hoIyyHPse7EPIckKOxvK-1" source="leaf1-eth1/49" target="MzNvUIA4c6WraNlcx4m_-111" edge="1">
          <mxGeometry relative="1" as="geometry">
            <mxPoint x="323.19801576790985" y="342.658035505297" as="sourcePoint" />
            <mxPoint x="410.803288453394" y="209.34282191874843" as="targetPoint" />
          </mxGeometry>
        </mxCell>
        <mxCell id="agJGtUolQpaysEPCJuB_-12" value="rate" style="edgeLabel;html=1;align=center;verticalAlign=middle;resizable=0;points=[];fontSize=6;fontFamily=Fira Code;fontColor=#FFFFFF;textOpacity=60;labelBackgroundColor=#4D5766;rotation=-90;" parent="MzNvUIA4c6WraNlcx4m_-112" vertex="1" connectable="0">
          <mxGeometry x="0.2388" relative="1" as="geometry">
            <mxPoint y="6" as="offset" />
          </mxGeometry>
        </mxCell>
        <mxCell id="MzNvUIA4c6WraNlcx4m_-113" value="" style="ellipse;whiteSpace=wrap;html=1;aspect=fixed;fontColor=#FFFFFF;fontSize=6;fontFamily=Manrope;fontSource=https%3A%2F%2Ffonts.googleapis.com%2Fcss%3Ffamily%3DManrope;fillColor=#BEC8D2;strokeColor=none;" parent="hoIyyHPse7EPIckKOxvK-1" vertex="1">
          <mxGeometry x="331" y="301" width="4" height="4" as="geometry" />
        </mxCell>
        <mxCell id="MzNvUIA4c6WraNlcx4m_-114" style="rounded=0;orthogonalLoop=1;jettySize=auto;html=1;exitX=0.5;exitY=0;exitDx=0;exitDy=0;startSize=6;endArrow=classicThin;endFill=1;endSize=2;fontFamily=Manrope;fontSize=8;strokeColor=#98A2AE;fontSource=https%3A%2F%2Ffonts.googleapis.com%2Fcss%3Ffamily%3DManrope;" parent="hoIyyHPse7EPIckKOxvK-1" source="leaf1-eth1/50" target="MzNvUIA4c6WraNlcx4m_-113" edge="1">
          <mxGeometry relative="1" as="geometry">
            <mxPoint x="335.8284271247395" y="343.1715728752604" as="sourcePoint" />
            <mxPoint x="511.8229200485491" y="208.43025985896702" as="targetPoint" />
          </mxGeometry>
        </mxCell>
        <mxCell id="agJGtUolQpaysEPCJuB_-13" value="rate" style="edgeLabel;html=1;align=center;verticalAlign=middle;resizable=0;points=[];fontSize=6;fontFamily=Fira Code;fontColor=#FFFFFF;textOpacity=60;labelBackgroundColor=#4D5766;rotation=-90;" parent="MzNvUIA4c6WraNlcx4m_-114" vertex="1" connectable="0">
          <mxGeometry x="0.2164" y="-1" relative="1" as="geometry">
            <mxPoint x="-1" y="5" as="offset" />
          </mxGeometry>
        </mxCell>
        <mxCell id="MzNvUIA4c6WraNlcx4m_-115" value="" style="ellipse;whiteSpace=wrap;html=1;aspect=fixed;fontColor=#FFFFFF;fontSize=6;fontFamily=Manrope;fontSource=https%3A%2F%2Ffonts.googleapis.com%2Fcss%3Ffamily%3DManrope;fillColor=#BEC8D2;strokeColor=none;" parent="hoIyyHPse7EPIckKOxvK-1" vertex="1">
          <mxGeometry x="450" y="301" width="4" height="4" as="geometry" />
        </mxCell>
        <mxCell id="MzNvUIA4c6WraNlcx4m_-116" style="rounded=0;orthogonalLoop=1;jettySize=auto;html=1;startSize=6;endArrow=classicThin;endFill=1;endSize=2;fontFamily=Manrope;fontSize=8;strokeColor=#98A2AE;fontSource=https%3A%2F%2Ffonts.googleapis.com%2Fcss%3Ffamily%3DManrope;" parent="hoIyyHPse7EPIckKOxvK-1" source="leaf2-eth1/49" target="MzNvUIA4c6WraNlcx4m_-115" edge="1">
          <mxGeometry relative="1" as="geometry">
            <mxPoint x="450.65424651862406" y="342.2331780545219" as="sourcePoint" />
            <mxPoint x="403.3453455880003" y="209.76696764640053" as="targetPoint" />
          </mxGeometry>
        </mxCell>
        <mxCell id="agJGtUolQpaysEPCJuB_-14" value="rate" style="edgeLabel;html=1;align=center;verticalAlign=middle;resizable=0;points=[];fontSize=6;fontFamily=Fira Code;fontColor=#FFFFFF;textOpacity=60;labelBackgroundColor=#4D5766;rotation=-90;" parent="MzNvUIA4c6WraNlcx4m_-116" vertex="1" connectable="0">
          <mxGeometry x="0.1881" y="-1" relative="1" as="geometry">
            <mxPoint x="-1" y="4" as="offset" />
          </mxGeometry>
        </mxCell>
        <mxCell id="MzNvUIA4c6WraNlcx4m_-117" value="" style="ellipse;whiteSpace=wrap;html=1;aspect=fixed;fontColor=#FFFFFF;fontSize=6;fontFamily=Manrope;fontSource=https%3A%2F%2Ffonts.googleapis.com%2Fcss%3Ffamily%3DManrope;fillColor=#BEC8D2;strokeColor=none;" parent="hoIyyHPse7EPIckKOxvK-1" vertex="1">
          <mxGeometry x="464" y="301" width="4" height="4" as="geometry" />
        </mxCell>
        <mxCell id="MzNvUIA4c6WraNlcx4m_-118" style="rounded=0;orthogonalLoop=1;jettySize=auto;html=1;startSize=2;endArrow=classicThin;endFill=1;endSize=2;fontFamily=Manrope;fontSize=8;strokeColor=#98A2AE;fontSource=https%3A%2F%2Ffonts.googleapis.com%2Fcss%3Ffamily%3DManrope;startFill=0;startArrow=none;edgeStyle=elbowEdgeStyle;elbow=vertical;" parent="hoIyyHPse7EPIckKOxvK-1" source="spine2-eth1/2" target="MzNvUIA4c6WraNlcx4m_-117" edge="1">
          <mxGeometry relative="1" as="geometry">
            <mxPoint x="502.957028966076" y="209.86163325851612" as="sourcePoint" />
            <mxPoint x="467.0454129305068" y="342.13902709101137" as="targetPoint" />
          </mxGeometry>
        </mxCell>
        <mxCell id="agJGtUolQpaysEPCJuB_-10" value="rate" style="edgeLabel;html=1;align=center;verticalAlign=middle;resizable=0;points=[];fontSize=6;fontFamily=Fira Code;fontColor=#FFFFFF;textOpacity=60;labelBackgroundColor=#4D5766;rotation=-90;" parent="MzNvUIA4c6WraNlcx4m_-118" vertex="1" connectable="0">
          <mxGeometry x="-0.299" y="1" relative="1" as="geometry">
            <mxPoint x="-1" y="2" as="offset" />
          </mxGeometry>
        </mxCell>
        <mxCell id="MzNvUIA4c6WraNlcx4m_-119" value="" style="ellipse;whiteSpace=wrap;html=1;aspect=fixed;fontColor=#FFFFFF;fontSize=6;fontFamily=Manrope;fontSource=https%3A%2F%2Ffonts.googleapis.com%2Fcss%3Ffamily%3DManrope;fillColor=#BEC8D2;strokeColor=none;" parent="hoIyyHPse7EPIckKOxvK-1" vertex="1">
          <mxGeometry x="594" y="301" width="4" height="4" as="geometry" />
        </mxCell>
        <mxCell id="MzNvUIA4c6WraNlcx4m_-120" style="rounded=0;orthogonalLoop=1;jettySize=auto;html=1;startSize=6;endArrow=classicThin;endFill=1;endSize=2;fontFamily=Manrope;fontSize=8;strokeColor=#98A2AE;fontSource=https%3A%2F%2Ffonts.googleapis.com%2Fcss%3Ffamily%3DManrope;" parent="hoIyyHPse7EPIckKOxvK-1" source="leaf3-eth1/49" target="MzNvUIA4c6WraNlcx4m_-119" edge="1">
          <mxGeometry relative="1" as="geometry">
            <mxPoint x="592.6966229650449" y="343.74440691500183" as="sourcePoint" />
            <mxPoint x="394.3026076694873" y="208.25671942909355" as="targetPoint" />
          </mxGeometry>
        </mxCell>
        <mxCell id="agJGtUolQpaysEPCJuB_-16" value="rate" style="edgeLabel;html=1;align=center;verticalAlign=middle;resizable=0;points=[];fontSize=6;fontFamily=Fira Code;fontColor=#FFFFFF;textOpacity=60;labelBackgroundColor=#4D5766;rotation=-90;" parent="MzNvUIA4c6WraNlcx4m_-120" vertex="1" connectable="0">
          <mxGeometry x="0.2112" relative="1" as="geometry">
            <mxPoint y="4" as="offset" />
          </mxGeometry>
        </mxCell>
        <mxCell id="MzNvUIA4c6WraNlcx4m_-121" value="" style="ellipse;whiteSpace=wrap;html=1;aspect=fixed;fontColor=#FFFFFF;fontSize=6;fontFamily=Manrope;fontSource=https%3A%2F%2Ffonts.googleapis.com%2Fcss%3Ffamily%3DManrope;fillColor=#BEC8D2;strokeColor=none;" parent="hoIyyHPse7EPIckKOxvK-1" vertex="1">
          <mxGeometry x="608" y="301" width="4" height="4" as="geometry" />
        </mxCell>
        <mxCell id="MzNvUIA4c6WraNlcx4m_-122" style="rounded=0;orthogonalLoop=1;jettySize=auto;html=1;startSize=6;endArrow=classicThin;endFill=1;endSize=2;fontFamily=Manrope;fontSize=8;strokeColor=#98A2AE;fontSource=https%3A%2F%2Ffonts.googleapis.com%2Fcss%3Ffamily%3DManrope;" parent="hoIyyHPse7EPIckKOxvK-1" source="leaf3-eth1/50" target="MzNvUIA4c6WraNlcx4m_-121" edge="1">
          <mxGeometry relative="1" as="geometry">
            <mxPoint x="607.4331094692784" y="342.9322527803572" as="sourcePoint" />
            <mxPoint x="495.5647476665348" y="209.06953895676736" as="targetPoint" />
          </mxGeometry>
        </mxCell>
        <mxCell id="agJGtUolQpaysEPCJuB_-17" value="rate" style="edgeLabel;html=1;align=center;verticalAlign=middle;resizable=0;points=[];fontSize=6;fontFamily=Fira Code;fontColor=#FFFFFF;textOpacity=60;labelBackgroundColor=#4D5766;rotation=-90;" parent="MzNvUIA4c6WraNlcx4m_-122" vertex="1" connectable="0">
          <mxGeometry x="0.1381" relative="1" as="geometry">
            <mxPoint y="3" as="offset" />
          </mxGeometry>
        </mxCell>
        <mxCell id="MzNvUIA4c6WraNlcx4m_-135" value="" style="ellipse;whiteSpace=wrap;html=1;aspect=fixed;fontColor=#FFFFFF;fontSize=6;fontFamily=Manrope;fontSource=https%3A%2F%2Ffonts.googleapis.com%2Fcss%3Ffamily%3DManrope;fillColor=#BEC8D2;strokeColor=none;" parent="hoIyyHPse7EPIckKOxvK-1" vertex="1">
          <mxGeometry x="251" y="173" width="10" height="10" as="geometry" />
        </mxCell>
        <mxCell id="MzNvUIA4c6WraNlcx4m_-136" value="&lt;font style=&quot;font-size: 8px&quot;&gt;0-5 Mbps&lt;/font&gt;" style="text;html=1;align=left;verticalAlign=middle;resizable=0;points=[];autosize=1;fontSize=8;fontFamily=Manrope;fontStyle=0;fontColor=#FFFFFF;" parent="hoIyyHPse7EPIckKOxvK-1" vertex="1">
          <mxGeometry x="265" y="171" width="45" height="14" as="geometry" />
        </mxCell>
        <mxCell id="MzNvUIA4c6WraNlcx4m_-137" value="" style="ellipse;whiteSpace=wrap;html=1;aspect=fixed;fontColor=#FFFFFF;fontSize=6;fontFamily=Manrope;fontSource=https%3A%2F%2Ffonts.googleapis.com%2Fcss%3Ffamily%3DManrope;strokeColor=none;fillColor=#4BDD33;" parent="hoIyyHPse7EPIckKOxvK-1" vertex="1">
          <mxGeometry x="251" y="190" width="10" height="10" as="geometry" />
        </mxCell>
        <mxCell id="MzNvUIA4c6WraNlcx4m_-138" value="&lt;font style=&quot;font-size: 8px&quot;&gt;5-50 Mbps&lt;/font&gt;" style="text;html=1;align=left;verticalAlign=middle;resizable=0;points=[];autosize=1;fontSize=8;fontFamily=Manrope;fontStyle=0;fontColor=#FFFFFF;" parent="hoIyyHPse7EPIckKOxvK-1" vertex="1">
          <mxGeometry x="263.6" y="188" width="49" height="14" as="geometry" />
        </mxCell>
        <mxCell id="MzNvUIA4c6WraNlcx4m_-139" value="" style="ellipse;whiteSpace=wrap;html=1;aspect=fixed;fontColor=#FFFFFF;fontSize=6;fontFamily=Manrope;fontSource=https%3A%2F%2Ffonts.googleapis.com%2Fcss%3Ffamily%3DManrope;strokeColor=none;fillColor=#FF8000;" parent="hoIyyHPse7EPIckKOxvK-1" vertex="1">
          <mxGeometry x="251" y="208" width="10" height="10" as="geometry" />
        </mxCell>
        <mxCell id="MzNvUIA4c6WraNlcx4m_-140" value="&lt;font style=&quot;font-size: 8px&quot;&gt;50-100 Mbps&lt;/font&gt;" style="text;html=1;align=left;verticalAlign=middle;resizable=0;points=[];autosize=1;fontSize=8;fontFamily=Manrope;fontStyle=0;fontColor=#FFFFFF;" parent="hoIyyHPse7EPIckKOxvK-1" vertex="1">
          <mxGeometry x="263.6" y="206" width="58" height="14" as="geometry" />
        </mxCell>
        <mxCell id="MzNvUIA4c6WraNlcx4m_-141" value="" style="ellipse;whiteSpace=wrap;html=1;aspect=fixed;fontColor=#FFFFFF;fontSize=6;fontFamily=Manrope;fontSource=https%3A%2F%2Ffonts.googleapis.com%2Fcss%3Ffamily%3DManrope;strokeColor=none;fillColor=#FF3154;" parent="hoIyyHPse7EPIckKOxvK-1" vertex="1">
          <mxGeometry x="251" y="225" width="10" height="10" as="geometry" />
        </mxCell>
        <mxCell id="MzNvUIA4c6WraNlcx4m_-142" value="&lt;font style=&quot;font-size: 8px&quot;&gt;100+ Mbps&lt;/font&gt;" style="text;html=1;align=left;verticalAlign=middle;resizable=0;points=[];autosize=1;fontSize=8;fontFamily=Manrope;fontStyle=0;fontColor=#FFFFFF;" parent="hoIyyHPse7EPIckKOxvK-1" vertex="1">
          <mxGeometry x="263.6" y="223" width="49" height="14" as="geometry" />
        </mxCell>
        <mxCell id="LEKcDndMfLhwWaFglhCF-0" style="orthogonalLoop=1;jettySize=auto;html=1;startSize=2;endArrow=none;endFill=0;endSize=2;fontFamily=Manrope;fontSize=8;strokeColor=#98A2AE;fontSource=https%3A%2F%2Ffonts.googleapis.com%2Fcss%3Ffamily%3DManrope;startFill=0;startArrow=none;edgeStyle=elbowEdgeStyle;elbow=vertical;entryX=0.5;entryY=1;entryDx=0;entryDy=0;rounded=1;exitX=0.5;exitY=0;exitDx=0;exitDy=0;jumpStyle=gap;jumpSize=6;" edge="1" parent="hoIyyHPse7EPIckKOxvK-1" source="spine1-eth1/1" target="MzNvUIA4c6WraNlcx4m_-10">
          <mxGeometry relative="1" as="geometry">
            <mxPoint x="311" y="311" as="sourcePoint" />
            <mxPoint x="311" y="274" as="targetPoint" />
            <Array as="points">
              <mxPoint x="414" y="221" />
            </Array>
          </mxGeometry>
        </mxCell>
        <mxCell id="LEKcDndMfLhwWaFglhCF-1" value="spine1_1/1-out" style="edgeLabel;html=1;align=center;verticalAlign=middle;resizable=0;points=[];fontSize=8;fontFamily=Fira Code;noLabel=1;fontColor=none;" vertex="1" connectable="0" parent="LEKcDndMfLhwWaFglhCF-0">
          <mxGeometry x="-0.1735" relative="1" as="geometry">
            <mxPoint as="offset" />
          </mxGeometry>
        </mxCell>
        <mxCell id="LEKcDndMfLhwWaFglhCF-2" value="asd" style="edgeLabel;html=1;align=center;verticalAlign=middle;resizable=0;points=[];fontSize=8;fontFamily=Fira Code;noLabel=1;fontColor=none;" vertex="1" connectable="0" parent="LEKcDndMfLhwWaFglhCF-0">
          <mxGeometry x="-0.315" y="2" relative="1" as="geometry">
            <mxPoint x="-6.08" y="-9.26" as="offset" />
          </mxGeometry>
        </mxCell>
        <mxCell id="LEKcDndMfLhwWaFglhCF-4" style="orthogonalLoop=1;jettySize=auto;html=1;startSize=2;endArrow=none;endFill=0;endSize=2;fontFamily=Manrope;fontSize=8;strokeColor=#98A2AE;fontSource=https%3A%2F%2Ffonts.googleapis.com%2Fcss%3Ffamily%3DManrope;startFill=0;startArrow=none;edgeStyle=elbowEdgeStyle;elbow=vertical;entryX=0.5;entryY=1;entryDx=0;entryDy=0;rounded=1;exitX=0.5;exitY=0;exitDx=0;exitDy=0;jumpStyle=gap;jumpSize=6;" edge="1" parent="hoIyyHPse7EPIckKOxvK-1" source="spine1-eth1/2" target="MzNvUIA4c6WraNlcx4m_-10">
          <mxGeometry relative="1" as="geometry">
            <mxPoint x="311" y="266" as="sourcePoint" />
            <mxPoint x="412" y="212" as="targetPoint" />
            <Array as="points">
              <mxPoint x="434" y="221" />
            </Array>
          </mxGeometry>
        </mxCell>
        <mxCell id="LEKcDndMfLhwWaFglhCF-5" value="spine1_1/1-out" style="edgeLabel;html=1;align=center;verticalAlign=middle;resizable=0;points=[];fontSize=8;fontFamily=Fira Code;noLabel=1;fontColor=none;" vertex="1" connectable="0" parent="LEKcDndMfLhwWaFglhCF-4">
          <mxGeometry x="-0.1735" relative="1" as="geometry">
            <mxPoint as="offset" />
          </mxGeometry>
        </mxCell>
        <mxCell id="LEKcDndMfLhwWaFglhCF-6" value="asd" style="edgeLabel;html=1;align=center;verticalAlign=middle;resizable=0;points=[];fontSize=8;fontFamily=Fira Code;noLabel=1;fontColor=none;" vertex="1" connectable="0" parent="LEKcDndMfLhwWaFglhCF-4">
          <mxGeometry x="-0.315" y="2" relative="1" as="geometry">
            <mxPoint x="-6.08" y="-9.26" as="offset" />
          </mxGeometry>
        </mxCell>
        <mxCell id="LEKcDndMfLhwWaFglhCF-10" style="orthogonalLoop=1;jettySize=auto;html=1;startSize=2;endArrow=none;endFill=0;endSize=2;fontFamily=Manrope;fontSize=8;strokeColor=#98A2AE;fontSource=https%3A%2F%2Ffonts.googleapis.com%2Fcss%3Ffamily%3DManrope;startFill=0;startArrow=none;edgeStyle=elbowEdgeStyle;elbow=vertical;entryX=0.5;entryY=1;entryDx=0;entryDy=0;rounded=1;exitX=0.5;exitY=0;exitDx=0;exitDy=0;jumpStyle=gap;jumpSize=6;" edge="1" parent="hoIyyHPse7EPIckKOxvK-1" source="spine2-eth1/1" target="MzNvUIA4c6WraNlcx4m_-4">
          <mxGeometry relative="1" as="geometry">
            <mxPoint x="626" y="266" as="sourcePoint" />
            <mxPoint x="412" y="212" as="targetPoint" />
            <Array as="points">
              <mxPoint x="409" y="238" />
            </Array>
          </mxGeometry>
        </mxCell>
        <mxCell id="LEKcDndMfLhwWaFglhCF-11" value="spine1_1/1-out" style="edgeLabel;html=1;align=center;verticalAlign=middle;resizable=0;points=[];fontSize=8;fontFamily=Fira Code;noLabel=1;fontColor=none;" vertex="1" connectable="0" parent="LEKcDndMfLhwWaFglhCF-10">
          <mxGeometry x="-0.1735" relative="1" as="geometry">
            <mxPoint as="offset" />
          </mxGeometry>
        </mxCell>
        <mxCell id="LEKcDndMfLhwWaFglhCF-12" value="asd" style="edgeLabel;html=1;align=center;verticalAlign=middle;resizable=0;points=[];fontSize=8;fontFamily=Fira Code;noLabel=1;fontColor=none;" vertex="1" connectable="0" parent="LEKcDndMfLhwWaFglhCF-10">
          <mxGeometry x="-0.315" y="2" relative="1" as="geometry">
            <mxPoint x="-6.08" y="-9.26" as="offset" />
          </mxGeometry>
        </mxCell>
        <mxCell id="LEKcDndMfLhwWaFglhCF-13" style="orthogonalLoop=1;jettySize=auto;html=1;startSize=2;endArrow=none;endFill=0;endSize=2;fontFamily=Manrope;fontSize=8;strokeColor=#98A2AE;fontSource=https%3A%2F%2Ffonts.googleapis.com%2Fcss%3Ffamily%3DManrope;startFill=0;startArrow=none;edgeStyle=elbowEdgeStyle;elbow=vertical;entryX=0.5;entryY=1;entryDx=0;entryDy=0;rounded=1;exitX=0.5;exitY=0;exitDx=0;exitDy=0;jumpStyle=gap;jumpSize=6;" edge="1" parent="hoIyyHPse7EPIckKOxvK-1" source="spine2-eth1/2" target="MzNvUIA4c6WraNlcx4m_-4">
          <mxGeometry relative="1" as="geometry">
            <mxPoint x="323" y="266" as="sourcePoint" />
            <mxPoint x="514" y="212" as="targetPoint" />
            <Array as="points">
              <mxPoint x="484" y="238" />
            </Array>
          </mxGeometry>
        </mxCell>
        <mxCell id="LEKcDndMfLhwWaFglhCF-14" value="spine1_1/1-out" style="edgeLabel;html=1;align=center;verticalAlign=middle;resizable=0;points=[];fontSize=8;fontFamily=Fira Code;noLabel=1;fontColor=none;" vertex="1" connectable="0" parent="LEKcDndMfLhwWaFglhCF-13">
          <mxGeometry x="-0.1735" relative="1" as="geometry">
            <mxPoint as="offset" />
          </mxGeometry>
        </mxCell>
        <mxCell id="LEKcDndMfLhwWaFglhCF-15" value="asd" style="edgeLabel;html=1;align=center;verticalAlign=middle;resizable=0;points=[];fontSize=8;fontFamily=Fira Code;noLabel=1;fontColor=none;" vertex="1" connectable="0" parent="LEKcDndMfLhwWaFglhCF-13">
          <mxGeometry x="-0.315" y="2" relative="1" as="geometry">
            <mxPoint x="-6.08" y="-9.26" as="offset" />
          </mxGeometry>
        </mxCell>
        <mxCell id="LEKcDndMfLhwWaFglhCF-16" style="orthogonalLoop=1;jettySize=auto;html=1;startSize=2;endArrow=none;endFill=0;endSize=2;fontFamily=Manrope;fontSize=8;strokeColor=#98A2AE;fontSource=https%3A%2F%2Ffonts.googleapis.com%2Fcss%3Ffamily%3DManrope;startFill=0;startArrow=none;edgeStyle=elbowEdgeStyle;elbow=vertical;entryX=0.5;entryY=1;entryDx=0;entryDy=0;rounded=1;exitX=0.5;exitY=0;exitDx=0;exitDy=0;jumpStyle=gap;jumpSize=6;" edge="1" parent="hoIyyHPse7EPIckKOxvK-1" source="spine2-eth1/3" target="MzNvUIA4c6WraNlcx4m_-4">
          <mxGeometry relative="1" as="geometry">
            <mxPoint x="476" y="266" as="sourcePoint" />
            <mxPoint x="514" y="212" as="targetPoint" />
            <Array as="points">
              <mxPoint x="493" y="238" />
            </Array>
          </mxGeometry>
        </mxCell>
        <mxCell id="LEKcDndMfLhwWaFglhCF-17" value="spine1_1/1-out" style="edgeLabel;html=1;align=center;verticalAlign=middle;resizable=0;points=[];fontSize=8;fontFamily=Fira Code;noLabel=1;fontColor=none;" vertex="1" connectable="0" parent="LEKcDndMfLhwWaFglhCF-16">
          <mxGeometry x="-0.1735" relative="1" as="geometry">
            <mxPoint as="offset" />
          </mxGeometry>
        </mxCell>
        <mxCell id="LEKcDndMfLhwWaFglhCF-18" value="asd" style="edgeLabel;html=1;align=center;verticalAlign=middle;resizable=0;points=[];fontSize=8;fontFamily=Fira Code;noLabel=1;fontColor=none;" vertex="1" connectable="0" parent="LEKcDndMfLhwWaFglhCF-16">
          <mxGeometry x="-0.315" y="2" relative="1" as="geometry">
            <mxPoint x="-6.08" y="-9.26" as="offset" />
          </mxGeometry>
        </mxCell>
      </root>
    </mxGraphModel>
  </diagram>
</mxfile>
